<?xml version="1.0" encoding="utf-8" ?>
<svg baseProfile="full" height="442px" version="1.1" width="201px" xmlns="http://www.w3.org/2000/svg" xmlns:ev="http://www.w3.org/2001/xml-events" xmlns:xlink="http://www.w3.org/1999/xlink"><defs /><path d="M 85,21 85,21 &#10;S 104,22 116,30&#10;S 123,42 126,61&#10;S 125,80 122,99&#10;S 121,118 119,137&#10;S 122,155 130,168&#10;S 138,179 146,191&#10;S 152,204 158,218&#10;S 164,237 168,256&#10;S 170,274 173,290&#10;S 168,309 169,328&#10;S 172,347 174,366&#10;S 171,382 160,390&#10;S 145,396 131,402&#10;S 115,407 96,412&#10;S 77,414 58,415&#10;S 40,411 28,404&#10;S 17,396 10,382&#10;S 10,363 15,344&#10;S 16,325 17,306&#10;S 17,287 17,268&#10;S 20,249 21,230&#10;S 23,211 31,199&#10;S 40,189 48,177&#10;S 56,166 63,152&#10;S 69,136 70,117&#10;S 65,100 64,81&#10;S 62,62 63,45&#10;S 70,32 82,23&#10;S 84,22 84,22 &#10;" fill="none" filter="url(#pencil)" stroke="#000" stroke-width="4" /></svg>