<?xml version="1.0" encoding="utf-8" ?>
<svg baseProfile="full" height="922px" version="1.1" width="922px" xmlns="http://www.w3.org/2000/svg" xmlns:ev="http://www.w3.org/2001/xml-events" xmlns:xlink="http://www.w3.org/1999/xlink"><defs><marker id="id6" markerHeight="4" markerWidth="4" orient="auto" refX="1" refY="1"><circle cx="1" cy="1" fill="black" r="0.5" /></marker></defs><path d="M 244,210 244,210 &#10;S 254,210 264,211&#10;S 274,212 284,213&#10;S 294,215 304,218&#10;S 314,222 324,225&#10;S 333,228 343,229&#10;S 353,230 360,235&#10;S 363,243 367,249&#10;S 372,254 376,255&#10;" fill="none" marker-end="url(#id6)" marker-start="url(#id6)" stroke="#000" stroke-width="3" /><path d="M 190,211 190,211 &#10;S 200,211 209,212&#10;S 218,213 221,213&#10;" fill="none" marker-end="url(#id6)" marker-start="url(#id6)" stroke="#000" stroke-width="3" /><path d="M 230,211 230,211 &#10;S 240,211 243,211&#10;" fill="none" marker-end="url(#id6)" marker-start="url(#id6)" stroke="#000" stroke-width="3" /><path d="M 648,212 648,212 &#10;S 657,214 663,218&#10;S 671,220 681,220&#10;S 682,221 682,221 &#10;" fill="none" marker-end="url(#id6)" marker-start="url(#id6)" stroke="#000" stroke-width="3" /><path d="M 686,218 686,218 &#10;S 696,218 706,220&#10;S 716,223 726,223&#10;S 731,229 735,235&#10;S 742,238 747,243&#10;S 752,248 757,254&#10;S 761,260 765,266&#10;S 769,272 773,278&#10;S 774,280 774,280 &#10;" fill="none" marker-end="url(#id6)" marker-start="url(#id6)" stroke="#000" stroke-width="3" /><path d="M 691,220 691,220 &#10;S 701,221 702,222&#10;" fill="none" marker-end="url(#id6)" marker-start="url(#id6)" stroke="#000" stroke-width="3" /><path d="M 688,222 688,222 &#10;S 697,223 702,223&#10;" fill="none" marker-end="url(#id6)" marker-start="url(#id6)" stroke="#000" stroke-width="3" /><path d="M 556,232 556,232 &#10;S 566,234 570,234&#10;" fill="none" marker-end="url(#id6)" marker-start="url(#id6)" stroke="#000" stroke-width="3" /><path d="M 187,253 187,253 &#10;S 197,253 207,253&#10;S 217,253 227,253&#10;S 237,253 240,253&#10;" fill="none" marker-end="url(#id6)" marker-start="url(#id6)" stroke="#000" stroke-width="3" /><path d="M 377,254 377,254 &#10;S 387,254 397,254&#10;S 407,254 417,254&#10;S 427,254 437,254&#10;S 447,254 457,254&#10;S 467,254 477,255&#10;S 487,255 497,256&#10;S 507,256 517,257&#10;S 525,257 525,257 &#10;" fill="none" marker-end="url(#id6)" marker-start="url(#id6)" stroke="#000" stroke-width="3" /><path d="M 204,256 204,256 &#10;S 214,256 224,256&#10;S 234,256 239,256&#10;" fill="none" marker-end="url(#id6)" marker-start="url(#id6)" stroke="#000" stroke-width="3" /><path d="M 407,261 407,261 &#10;S 417,261 427,261&#10;S 437,261 447,262&#10;S 457,262 467,262&#10;S 477,262 487,263&#10;S 497,263 507,264&#10;S 517,264 525,267&#10;S 525,268 525,268 &#10;" fill="none" marker-end="url(#id6)" marker-start="url(#id6)" stroke="#000" stroke-width="3" /><path d="M 378,262 378,262 &#10;S 388,262 398,262&#10;S 406,262 406,262 &#10;" fill="none" marker-end="url(#id6)" marker-start="url(#id6)" stroke="#000" stroke-width="3" /><path d="M 378,263 378,263 &#10;S 381,269 385,275&#10;S 389,281 392,289&#10;S 396,296 399,306&#10;S 402,316 404,326&#10;S 413,327 423,327&#10;S 433,327 443,327&#10;S 453,327 463,327&#10;S 473,327 483,327&#10;S 490,328 490,328 &#10;" fill="none" marker-end="url(#id6)" marker-start="url(#id6)" stroke="#000" stroke-width="3" /><path d="M 124,264 124,264 &#10;S 121,271 117,279&#10;S 119,283 119,283 &#10;" fill="none" marker-end="url(#id6)" marker-start="url(#id6)" stroke="#000" stroke-width="3" /><path d="M 211,264 211,264 &#10;S 221,264 231,264&#10;S 241,264 251,264&#10;S 261,264 271,264&#10;S 281,265 291,267&#10;S 301,269 311,272&#10;S 320,275 328,278&#10;S 334,282 341,285&#10;S 347,289 352,294&#10;S 357,299 362,304&#10;S 367,309 371,315&#10;S 375,321 378,329&#10;S 382,338 385,348&#10;S 386,358 388,368&#10;S 388,378 387,388&#10;S 386,398 384,408&#10;S 381,418 378,428&#10;S 374,438 371,446&#10;S 368,452 368,452 &#10;" fill="none" marker-end="url(#id6)" marker-start="url(#id6)" stroke="#000" stroke-width="3" /><path d="M 189,266 189,266 &#10;S 199,266 201,266&#10;" fill="none" marker-end="url(#id6)" marker-start="url(#id6)" stroke="#000" stroke-width="3" /><path d="M 621,268 621,268 &#10;S 631,268 641,268&#10;S 651,268 661,268&#10;S 671,269 681,269&#10;S 691,271 701,272&#10;S 711,274 721,277&#10;S 730,281 739,284&#10;S 746,288 753,291&#10;S 759,295 765,299&#10;S 770,304 775,309&#10;S 780,314 784,320&#10;S 788,326 791,334&#10;S 794,344 796,354&#10;S 796,364 796,374&#10;S 795,384 793,394&#10;S 792,404 789,414&#10;S 786,424 782,434&#10;S 779,442 776,449&#10;S 773,455 773,455 &#10;" fill="none" marker-end="url(#id6)" marker-start="url(#id6)" stroke="#000" stroke-width="3" /><path d="M 731,271 731,271 &#10;S 741,274 749,278&#10;S 759,281 762,281&#10;" fill="none" marker-end="url(#id6)" marker-start="url(#id6)" stroke="#000" stroke-width="3" /><path d="M 730,273 730,273 &#10;S 740,277 747,280&#10;S 754,283 760,287&#10;S 766,291 772,295&#10;S 777,300 782,305&#10;S 787,310 791,316&#10;S 795,322 798,330&#10;S 802,331 802,331 &#10;" fill="none" marker-end="url(#id6)" marker-start="url(#id6)" stroke="#000" stroke-width="3" /><path d="M 763,280 763,280 &#10;S 773,281 774,281&#10;" fill="none" marker-end="url(#id6)" marker-start="url(#id6)" stroke="#000" stroke-width="3" /><path d="M 499,300 499,300 &#10;S 497,306 493,315&#10;S 490,325 490,327&#10;" fill="none" marker-end="url(#id6)" marker-start="url(#id6)" stroke="#000" stroke-width="3" /><path d="M 110,305 110,305 &#10;S 108,311 104,320&#10;S 103,323 103,323 &#10;" fill="none" marker-end="url(#id6)" marker-start="url(#id6)" stroke="#000" stroke-width="3" /><path d="M 119,305 119,305 &#10;S 117,311 113,319&#10;S 109,329 106,339&#10;S 105,349 103,359&#10;S 103,369 103,379&#10;S 104,389 105,399&#10;S 107,409 110,419&#10;S 114,428 117,436&#10;S 121,442 124,449&#10;S 128,455 133,460&#10;S 137,466 142,471&#10;S 147,476 152,481&#10;S 157,486 163,490&#10;S 169,494 175,498&#10;S 181,502 187,506&#10;S 195,509 203,512&#10;S 213,516 223,519&#10;S 233,521 243,523&#10;S 253,524 263,524&#10;S 269,524 269,524 &#10;" fill="none" marker-end="url(#id6)" marker-start="url(#id6)" stroke="#000" stroke-width="3" /><path d="M 236,312 236,312 &#10;S 246,312 256,312&#10;S 266,313 276,314&#10;S 286,316 296,317&#10;S 306,320 314,323&#10;S 320,327 326,331&#10;S 332,335 337,340&#10;S 342,345 347,350&#10;S 351,356 356,361&#10;S 356,363 356,363 &#10;" fill="none" marker-end="url(#id6)" marker-start="url(#id6)" stroke="#000" stroke-width="3" /><path d="M 607,317 607,317 &#10;S 617,317 627,317&#10;S 637,317 647,319&#10;S 657,321 666,324&#10;S 674,327 682,331&#10;S 690,335 699,338&#10;S 706,342 712,346&#10;S 718,350 724,354&#10;S 730,358 735,363&#10;S 739,369 743,375&#10;S 741,382 741,382 &#10;" fill="none" marker-end="url(#id6)" marker-start="url(#id6)" stroke="#000" stroke-width="3" /><path d="M 75,324 75,324 &#10;S 85,324 95,324&#10;S 101,324 101,324 &#10;" fill="none" marker-end="url(#id6)" marker-start="url(#id6)" stroke="#000" stroke-width="3" /><path d="M 60,325 60,325 &#10;S 70,325 74,325&#10;" fill="none" marker-end="url(#id6)" marker-start="url(#id6)" stroke="#000" stroke-width="3" /><path d="M 216,326 216,326 &#10;S 213,334 211,344&#10;S 211,354 213,364&#10;S 216,373 220,379&#10;S 226,383 230,386&#10;" fill="none" marker-end="url(#id6)" marker-start="url(#id6)" stroke="#000" stroke-width="3" /><path d="M 308,330 308,330 &#10;S 312,336 314,346&#10;S 314,356 313,366&#10;S 310,375 310,375 &#10;" fill="none" marker-end="url(#id6)" marker-start="url(#id6)" stroke="#000" stroke-width="3" /><path d="M 803,330 803,330 &#10;S 813,331 823,333&#10;S 832,335 837,340&#10;S 842,345 845,352&#10;S 843,362 843,363&#10;" fill="none" marker-end="url(#id6)" marker-start="url(#id6)" stroke="#000" stroke-width="3" /><path d="M 52,331 52,331 &#10;S 50,340 48,350&#10;S 50,358 57,359&#10;" fill="none" marker-end="url(#id6)" marker-start="url(#id6)" stroke="#000" stroke-width="3" /><path d="M 313,331 313,331 &#10;S 319,335 324,340&#10;S 330,344 336,348&#10;S 341,353 347,357&#10;S 352,362 356,364&#10;" fill="none" marker-end="url(#id6)" marker-start="url(#id6)" stroke="#000" stroke-width="3" /><path d="M 519,334 519,334 &#10;S 516,341 513,349&#10;S 510,359 508,369&#10;S 508,379 508,389&#10;S 509,399 511,409&#10;S 514,419 517,429&#10;S 521,438 525,445&#10;S 528,452 532,458&#10;S 536,464 540,470&#10;S 545,475 549,481&#10;S 554,486 559,491&#10;S 564,496 569,501&#10;S 575,505 581,509&#10;S 587,513 593,517&#10;S 600,520 609,524&#10;S 619,527 629,529&#10;S 639,530 649,530&#10;S 659,530 661,530&#10;" fill="none" marker-end="url(#id6)" marker-start="url(#id6)" stroke="#000" stroke-width="3" /><path d="M 447,339 447,339 &#10;S 457,340 467,340&#10;S 477,341 487,341&#10;S 494,346 496,356&#10;S 499,365 500,374&#10;S 500,384 501,394&#10;S 502,404 504,414&#10;S 507,424 511,433&#10;S 514,440 517,448&#10;S 521,454 525,460&#10;S 528,467 533,472&#10;S 537,478 541,484&#10;S 546,489 551,494&#10;S 556,499 561,504&#10;S 567,508 572,513&#10;S 578,517 584,521&#10;S 591,524 597,528&#10;S 607,531 617,534&#10;S 627,537 637,538&#10;S 647,538 657,538&#10;S 658,538 658,538 &#10;" fill="none" marker-end="url(#id6)" marker-start="url(#id6)" stroke="#000" stroke-width="3" /><path d="M 676,339 676,339 &#10;S 676,349 678,359&#10;S 678,369 675,379&#10;S 674,384 674,384 &#10;" fill="none" marker-end="url(#id6)" marker-start="url(#id6)" stroke="#000" stroke-width="3" /><path d="M 245,340 245,340 &#10;S 255,340 264,341&#10;S 266,351 267,357&#10;" fill="none" marker-end="url(#id6)" marker-start="url(#id6)" stroke="#000" stroke-width="3" /><path d="M 432,340 432,340 &#10;S 442,340 446,340&#10;" fill="none" marker-end="url(#id6)" marker-start="url(#id6)" stroke="#000" stroke-width="3" /><path d="M 677,340 677,340 &#10;S 684,343 690,347&#10;S 696,351 702,355&#10;S 707,360 713,364&#10;S 718,369 724,373&#10;S 726,376 726,376 &#10;" fill="none" marker-end="url(#id6)" marker-start="url(#id6)" stroke="#000" stroke-width="3" /><path d="M 408,341 408,341 &#10;S 418,341 428,341&#10;S 431,341 431,341 &#10;" fill="none" marker-end="url(#id6)" marker-start="url(#id6)" stroke="#000" stroke-width="3" /><path d="M 241,342 241,342 &#10;S 240,351 243,360&#10;S 248,361 248,361 &#10;" fill="none" marker-end="url(#id6)" marker-start="url(#id6)" stroke="#000" stroke-width="3" /><path d="M 407,342 407,342 &#10;S 408,351 410,361&#10;S 411,371 410,381&#10;S 408,391 408,392&#10;" fill="none" marker-end="url(#id6)" marker-start="url(#id6)" stroke="#000" stroke-width="3" /><path d="M 572,342 572,342 &#10;S 575,349 576,359&#10;S 578,369 581,379&#10;S 583,386 583,386 &#10;" fill="none" marker-end="url(#id6)" marker-start="url(#id6)" stroke="#000" stroke-width="3" /><path d="M 599,344 599,344 &#10;S 609,346 619,347&#10;S 622,354 621,364&#10;S 621,365 621,365 &#10;" fill="none" marker-end="url(#id6)" marker-start="url(#id6)" stroke="#000" stroke-width="3" /><path d="M 597,345 597,345 &#10;S 597,354 598,364&#10;S 607,366 617,366&#10;S 621,366 621,366 &#10;" fill="none" marker-end="url(#id6)" marker-start="url(#id6)" stroke="#000" stroke-width="3" /><path d="M 83,348 83,348 &#10;S 93,348 96,354&#10;S 95,364 95,374&#10;S 96,384 96,394&#10;S 98,404 101,414&#10;S 104,424 107,433&#10;S 110,440 114,446&#10;S 118,452 121,459&#10;S 126,464 130,470&#10;S 135,475 140,480&#10;S 145,485 150,490&#10;S 155,495 161,499&#10;S 167,503 173,507&#10;S 180,510 187,514&#10;S 195,517 203,521&#10;S 213,524 223,527&#10;S 233,529 243,530&#10;S 253,531 263,532&#10;S 267,532 267,532 &#10;" fill="none" marker-end="url(#id6)" marker-start="url(#id6)" stroke="#000" stroke-width="3" /><path d="M 639,356 639,356 &#10;S 649,358 656,362&#10;S 656,372 656,372 &#10;" fill="none" marker-end="url(#id6)" marker-start="url(#id6)" stroke="#000" stroke-width="3" /><path d="M 805,357 805,357 &#10;S 815,358 825,358&#10;S 832,362 842,364&#10;S 843,364 843,364 &#10;" fill="none" marker-end="url(#id6)" marker-start="url(#id6)" stroke="#000" stroke-width="3" /><path d="M 636,358 636,358 &#10;S 636,368 641,374&#10;S 648,374 648,374 &#10;" fill="none" marker-end="url(#id6)" marker-start="url(#id6)" stroke="#000" stroke-width="3" /><path d="M 804,358 804,358 &#10;S 804,367 804,377&#10;S 803,387 801,397&#10;S 799,407 796,417&#10;S 793,427 790,437&#10;S 785,446 783,453&#10;" fill="none" marker-end="url(#id6)" marker-start="url(#id6)" stroke="#000" stroke-width="3" /><path d="M 282,360 282,360 &#10;S 284,368 288,368&#10;" fill="none" marker-end="url(#id6)" marker-start="url(#id6)" stroke="#000" stroke-width="3" /><path d="M 534,366 534,366 &#10;S 532,375 536,382&#10;S 546,384 556,384&#10;S 565,387 573,390&#10;S 583,393 593,395&#10;S 603,397 613,397&#10;S 623,397 633,397&#10;S 643,398 653,398&#10;S 663,398 666,398&#10;" fill="none" marker-end="url(#id6)" marker-start="url(#id6)" stroke="#000" stroke-width="3" /><path d="M 146,369 146,369 &#10;S 155,372 165,375&#10;S 175,378 185,380&#10;S 195,382 205,384&#10;S 215,385 225,387&#10;S 231,387 231,387 &#10;" fill="none" marker-end="url(#id6)" marker-start="url(#id6)" stroke="#000" stroke-width="3" /><path d="M 353,369 353,369 &#10;S 355,377 355,378&#10;" fill="none" marker-end="url(#id6)" marker-start="url(#id6)" stroke="#000" stroke-width="3" /><path d="M 395,369 395,369 &#10;S 397,377 399,387&#10;S 403,393 405,394&#10;" fill="none" marker-end="url(#id6)" marker-start="url(#id6)" stroke="#000" stroke-width="3" /><path d="M 146,370 146,370 &#10;S 151,374 158,378&#10;S 168,381 178,384&#10;S 188,386 198,388&#10;S 208,390 218,391&#10;S 228,391 238,392&#10;S 248,392 253,392&#10;" fill="none" marker-end="url(#id6)" marker-start="url(#id6)" stroke="#000" stroke-width="3" /><path d="M 395,370 395,370 &#10;S 395,380 395,390&#10;S 394,400 392,410&#10;S 389,420 386,430&#10;S 382,439 378,447&#10;S 376,453 373,459&#10;" fill="none" marker-end="url(#id6)" marker-start="url(#id6)" stroke="#000" stroke-width="3" /><path d="M 540,371 540,371 &#10;S 541,377 551,379&#10;S 561,380 571,383&#10;S 581,386 582,387&#10;" fill="none" marker-end="url(#id6)" marker-start="url(#id6)" stroke="#000" stroke-width="3" /><path d="M 313,377 313,377 &#10;S 323,377 333,377&#10;S 343,377 345,377&#10;" fill="none" marker-end="url(#id6)" marker-start="url(#id6)" stroke="#000" stroke-width="3" /><path d="M 315,383 315,383 &#10;S 325,383 335,383&#10;S 344,384 344,384 &#10;" fill="none" marker-end="url(#id6)" marker-start="url(#id6)" stroke="#000" stroke-width="3" /><path d="M 254,391 254,391 &#10;S 264,391 270,391&#10;" fill="none" marker-end="url(#id6)" marker-start="url(#id6)" stroke="#000" stroke-width="3" /><path d="M 682,391 682,391 &#10;S 689,393 690,393&#10;" fill="none" marker-end="url(#id6)" marker-start="url(#id6)" stroke="#000" stroke-width="3" /><path d="M 700,391 700,391 &#10;S 710,391 714,391&#10;" fill="none" marker-end="url(#id6)" marker-start="url(#id6)" stroke="#000" stroke-width="3" /><path d="M 781,454 781,454 &#10;S 779,460 778,462&#10;" fill="none" marker-end="url(#id6)" marker-start="url(#id6)" stroke="#000" stroke-width="3" /><path d="M 373,589 373,589 &#10;S 383,589 393,590&#10;S 402,594 408,598&#10;S 412,604 417,609&#10;S 423,613 429,617&#10;S 437,621 447,622&#10;S 453,622 453,622 &#10;" fill="none" marker-end="url(#id6)" marker-start="url(#id6)" stroke="#000" stroke-width="3" /><path d="M 364,594 364,594 &#10;S 365,603 368,611&#10;S 373,616 379,620&#10;" fill="none" marker-end="url(#id6)" marker-start="url(#id6)" stroke="#000" stroke-width="3" /><path d="M 497,604 497,604 &#10;S 507,605 515,608&#10;S 520,613 522,622&#10;S 522,623 522,623 &#10;" fill="none" marker-end="url(#id6)" marker-start="url(#id6)" stroke="#000" stroke-width="3" /><path d="M 390,607 390,607 &#10;S 399,609 406,612&#10;S 412,616 418,620&#10;S 424,624 430,628&#10;S 438,632 443,632&#10;" fill="none" marker-end="url(#id6)" marker-start="url(#id6)" stroke="#000" stroke-width="3" /><path d="M 495,616 495,616 &#10;S 503,620 512,623&#10;S 514,623 514,623 &#10;" fill="none" marker-end="url(#id6)" marker-start="url(#id6)" stroke="#000" stroke-width="3" /><path d="M 448,683 448,683 &#10;S 450,688 448,698&#10;S 448,704 448,704 &#10;" fill="none" marker-end="url(#id6)" marker-start="url(#id6)" stroke="#000" stroke-width="3" /><path d="M 448,684 448,684 &#10;S 445,694 445,704&#10;S 448,705 448,705 &#10;" fill="none" marker-end="url(#id6)" marker-start="url(#id6)" stroke="#000" stroke-width="3" /><path d="M 344,689 344,689 &#10;S 345,696 342,705&#10;" fill="none" marker-end="url(#id6)" marker-start="url(#id6)" stroke="#000" stroke-width="3" /><path d="M 344,690 344,690 &#10;S 341,700 342,706&#10;" fill="none" marker-end="url(#id6)" marker-start="url(#id6)" stroke="#000" stroke-width="3" /><path d="M 349,696 349,696 &#10;S 349,704 348,708&#10;" fill="none" marker-end="url(#id6)" marker-start="url(#id6)" stroke="#000" stroke-width="3" /><path d="M 348,697 348,697 &#10;S 346,706 348,709&#10;" fill="none" marker-end="url(#id6)" marker-start="url(#id6)" stroke="#000" stroke-width="3" /><path d="M 556,697 556,697 &#10;S 560,705 560,706&#10;" fill="none" marker-end="url(#id6)" marker-start="url(#id6)" stroke="#000" stroke-width="3" /><path d="M 556,698 556,698 &#10;S 558,707 560,707&#10;" fill="none" marker-end="url(#id6)" marker-start="url(#id6)" stroke="#000" stroke-width="3" /><path d="M 507,734 507,734 &#10;S 517,734 527,736&#10;S 537,739 545,742&#10;S 555,745 565,746&#10;S 575,746 581,746&#10;" fill="none" marker-end="url(#id6)" marker-start="url(#id6)" stroke="#000" stroke-width="3" /><path d="M 406,740 406,740 &#10;S 416,740 426,740&#10;S 436,741 446,741&#10;S 456,742 465,742&#10;" fill="none" marker-end="url(#id6)" marker-start="url(#id6)" stroke="#000" stroke-width="3" /><path d="M 594,743 594,743 &#10;S 598,748 599,748&#10;" fill="none" marker-end="url(#id6)" marker-start="url(#id6)" stroke="#000" stroke-width="3" /><path d="M 303,746 303,746 &#10;S 311,749 319,753&#10;S 328,755 338,755&#10;" fill="none" marker-end="url(#id6)" marker-start="url(#id6)" stroke="#000" stroke-width="3" /><path d="M 301,748 301,748 &#10;S 302,756 309,759&#10;S 318,761 326,765&#10;S 335,768 345,770&#10;S 355,771 365,772&#10;S 375,772 385,773&#10;S 395,774 405,776&#10;S 415,777 419,777&#10;" fill="none" marker-end="url(#id6)" marker-start="url(#id6)" stroke="#000" stroke-width="3" /><path d="M 506,766 506,766 &#10;S 516,766 526,767&#10;S 536,767 539,767&#10;" fill="none" marker-end="url(#id6)" marker-start="url(#id6)" stroke="#000" stroke-width="3" /><path d="M 420,776 420,776 &#10;S 430,777 440,778&#10;S 450,778 454,778&#10;" fill="none" marker-end="url(#id6)" marker-start="url(#id6)" stroke="#000" stroke-width="3" /><path d="M 432,827 432,827 &#10;S 442,827 449,827&#10;" fill="none" marker-end="url(#id6)" marker-start="url(#id6)" stroke="#000" stroke-width="3" /><path d="M 432,828 432,828 &#10;S 437,833 447,833&#10;S 451,833 451,833 &#10;" fill="none" marker-end="url(#id6)" marker-start="url(#id6)" stroke="#000" stroke-width="3" /></svg>