<?xml version="1.0" encoding="utf-8" ?>
<svg baseProfile="full" height="922px" version="1.1" width="922px" xmlns="http://www.w3.org/2000/svg" xmlns:ev="http://www.w3.org/2001/xml-events" xmlns:xlink="http://www.w3.org/1999/xlink"><defs><marker id="id2" markerHeight="4" markerWidth="4" orient="auto" refX="1" refY="1"><circle cx="1" cy="1" fill="black" r="0.5" /></marker></defs><path d="M 446,567 446,567 &#10;S 451,572 461,575&#10;S 464,575 464,575 &#10;" fill="none" marker-end="url(#id2)" marker-start="url(#id2)" stroke="#000" stroke-width="3" /><path d="M 248,652 248,652 &#10;S 252,656 250,666&#10;S 247,676 248,676&#10;" fill="none" marker-end="url(#id2)" marker-start="url(#id2)" stroke="#000" stroke-width="3" /><path d="M 298,157 298,157 &#10;S 305,160 309,166&#10;S 314,171 318,177&#10;S 323,182 328,187&#10;S 333,192 338,197&#10;S 344,201 350,205&#10;S 357,208 363,212&#10;S 372,215 375,215&#10;" fill="none" marker-end="url(#id2)" marker-start="url(#id2)" stroke="#000" stroke-width="3" /><path d="M 297,158 297,158 &#10;S 300,167 303,174&#10;S 307,180 311,186&#10;S 315,192 320,197&#10;S 325,202 330,207&#10;S 336,211 343,214&#10;S 353,217 363,217&#10;S 373,217 374,217&#10;" fill="none" marker-end="url(#id2)" marker-start="url(#id2)" stroke="#000" stroke-width="3" /><path d="M 557,167 557,167 &#10;S 565,170 574,174&#10;S 580,178 585,183&#10;S 589,189 592,198&#10;S 594,208 594,218&#10;S 593,228 594,228&#10;" fill="none" marker-end="url(#id2)" marker-start="url(#id2)" stroke="#000" stroke-width="3" /><path d="M 244,177 244,177 &#10;S 249,182 253,188&#10;S 258,193 262,199&#10;S 266,205 270,211&#10;S 268,221 267,231&#10;S 265,241 262,249&#10;S 263,259 263,269&#10;S 262,271 262,271 &#10;" fill="none" marker-end="url(#id2)" marker-start="url(#id2)" stroke="#000" stroke-width="3" /><path d="M 237,167 237,167 &#10;S 234,173 230,179&#10;S 226,186 223,195&#10;S 220,205 216,215&#10;S 213,225 210,235&#10;S 208,241 208,241 &#10;" fill="none" marker-end="url(#id2)" marker-start="url(#id2)" stroke="#000" stroke-width="3" /><path d="M 450,188 450,188 &#10;S 460,188 469,186&#10;" fill="none" marker-end="url(#id2)" marker-start="url(#id2)" stroke="#000" stroke-width="3" /><path d="M 507,190 507,190 &#10;S 514,194 524,197&#10;S 534,201 544,204&#10;S 554,208 562,212&#10;S 569,215 576,218&#10;S 582,222 588,226&#10;S 593,229 593,229 &#10;" fill="none" marker-end="url(#id2)" marker-start="url(#id2)" stroke="#000" stroke-width="3" /><path d="M 169,193 169,193 &#10;S 167,203 169,213&#10;S 172,221 177,226&#10;S 182,231 188,235&#10;S 195,238 205,242&#10;S 206,242 206,242 &#10;" fill="none" marker-end="url(#id2)" marker-start="url(#id2)" stroke="#000" stroke-width="3" /><path d="M 426,201 426,201 &#10;S 428,206 434,212&#10;S 437,221 440,227&#10;" fill="none" marker-end="url(#id2)" marker-start="url(#id2)" stroke="#000" stroke-width="3" /><path d="M 456,210 456,210 &#10;S 466,209 476,207&#10;S 486,204 493,200&#10;S 498,207 501,215&#10;S 504,225 505,235&#10;S 505,238 505,238 &#10;" fill="none" marker-end="url(#id2)" marker-start="url(#id2)" stroke="#000" stroke-width="3" /><path d="M 456,211 456,211 &#10;S 460,216 465,221&#10;S 471,225 477,229&#10;S 483,233 491,236&#10;S 501,239 506,239&#10;" fill="none" marker-end="url(#id2)" marker-start="url(#id2)" stroke="#000" stroke-width="3" /><path d="M 277,222 277,222 &#10;S 280,229 284,235&#10;S 288,241 292,247&#10;S 296,253 301,258&#10;S 305,264 309,270&#10;S 314,274 314,274 &#10;" fill="none" marker-end="url(#id2)" marker-start="url(#id2)" stroke="#000" stroke-width="3" /><path d="M 275,223 275,223 &#10;S 275,233 277,243&#10;S 280,251 285,256&#10;S 290,261 296,265&#10;S 302,269 308,273&#10;S 312,275 312,275 &#10;" fill="none" marker-end="url(#id2)" marker-start="url(#id2)" stroke="#000" stroke-width="3" /><path d="M 524,234 524,234 &#10;S 534,235 537,236&#10;" fill="none" marker-end="url(#id2)" marker-start="url(#id2)" stroke="#000" stroke-width="3" /><path d="M 704,235 704,235 &#10;S 714,234 721,238&#10;S 727,242 732,247&#10;S 737,252 741,258&#10;S 745,264 748,273&#10;S 755,276 761,280&#10;S 769,283 777,287&#10;S 783,291 785,293&#10;" fill="none" marker-end="url(#id2)" marker-start="url(#id2)" stroke="#000" stroke-width="3" /><path d="M 704,236 704,236 &#10;S 703,246 703,256&#10;S 700,266 701,266&#10;" fill="none" marker-end="url(#id2)" marker-start="url(#id2)" stroke="#000" stroke-width="3" /><path d="M 242,177 242,177 &#10;S 239,187 237,197&#10;S 235,207 235,217&#10;S 235,227 236,237&#10;S 243,240 245,240&#10;" fill="none" marker-end="url(#id2)" marker-start="url(#id2)" stroke="#000" stroke-width="3" /><path d="M 523,235 523,235 &#10;S 531,239 539,240&#10;" fill="none" marker-end="url(#id2)" marker-start="url(#id2)" stroke="#000" stroke-width="3" /><path d="M 372,242 372,242 &#10;S 381,239 387,235&#10;S 394,232 400,228&#10;S 408,226 418,228&#10;S 428,228 438,228&#10;S 439,228 439,228 &#10;" fill="none" marker-end="url(#id2)" marker-start="url(#id2)" stroke="#000" stroke-width="3" /><path d="M 341,242 341,242 &#10;S 350,244 360,244&#10;S 370,243 371,243&#10;" fill="none" marker-end="url(#id2)" marker-start="url(#id2)" stroke="#000" stroke-width="3" /><path d="M 237,244 237,244 &#10;S 238,253 241,263&#10;S 246,271 256,272&#10;S 262,272 262,272 &#10;" fill="none" marker-end="url(#id2)" marker-start="url(#id2)" stroke="#000" stroke-width="3" /><path d="M 528,245 528,245 &#10;S 535,242 544,238&#10;S 554,240 564,242&#10;S 574,245 583,249&#10;S 590,252 596,256&#10;S 601,261 606,266&#10;S 611,271 615,277&#10;S 619,283 622,292&#10;S 625,302 627,312&#10;S 627,322 627,332&#10;S 626,335 626,335 &#10;" fill="none" marker-end="url(#id2)" marker-start="url(#id2)" stroke="#000" stroke-width="3" /><path d="M 151,246 151,246 &#10;S 149,252 145,260&#10;S 146,270 146,271&#10;" fill="none" marker-end="url(#id2)" marker-start="url(#id2)" stroke="#000" stroke-width="3" /><path d="M 340,244 340,244 &#10;S 348,247 357,251&#10;S 367,253 377,254&#10;S 387,254 397,252&#10;S 401,252 401,252 &#10;" fill="none" marker-end="url(#id2)" marker-start="url(#id2)" stroke="#000" stroke-width="3" /><path d="M 167,193 167,193 &#10;S 164,199 159,206&#10;S 157,215 156,225&#10;S 157,235 161,241&#10;S 167,246 176,249&#10;S 186,252 196,253&#10;S 205,255 205,265&#10;S 204,269 204,269 &#10;" fill="none" marker-end="url(#id2)" marker-start="url(#id2)" stroke="#000" stroke-width="3" /><path d="M 152,244 152,244 &#10;S 155,252 155,262&#10;S 159,269 169,267&#10;S 179,267 187,270&#10;S 197,270 202,270&#10;" fill="none" marker-end="url(#id2)" marker-start="url(#id2)" stroke="#000" stroke-width="3" /><path d="M 636,268 636,268 &#10;S 646,268 656,267&#10;S 666,267 674,269&#10;" fill="none" marker-end="url(#id2)" marker-start="url(#id2)" stroke="#000" stroke-width="3" /><path d="M 675,268 675,268 &#10;S 685,267 695,267&#10;S 699,267 699,267 &#10;" fill="none" marker-end="url(#id2)" marker-start="url(#id2)" stroke="#000" stroke-width="3" /><path d="M 527,246 527,246 &#10;S 528,255 528,265&#10;S 532,271 542,269&#10;S 544,269 544,269 &#10;" fill="none" marker-end="url(#id2)" marker-start="url(#id2)" stroke="#000" stroke-width="3" /><path d="M 558,166 558,166 &#10;S 564,162 574,165&#10;S 581,169 587,173&#10;S 592,178 596,184&#10;S 600,191 603,201&#10;S 604,211 603,221&#10;S 601,231 604,238&#10;S 609,243 614,248&#10;S 618,254 623,259&#10;S 627,265 632,270&#10;S 635,269 635,269 &#10;" fill="none" marker-end="url(#id2)" marker-start="url(#id2)" stroke="#000" stroke-width="3" /><path d="M 545,268 545,268 &#10;S 555,267 564,268&#10;S 565,270 565,270 &#10;" fill="none" marker-end="url(#id2)" marker-start="url(#id2)" stroke="#000" stroke-width="3" /><path d="M 402,251 402,251 &#10;S 412,249 422,246&#10;S 432,242 439,239&#10;S 446,236 453,240&#10;S 458,245 465,248&#10;S 475,251 485,253&#10;S 495,253 505,252&#10;S 507,261 505,271&#10;S 504,274 504,274 &#10;" fill="none" marker-end="url(#id2)" marker-start="url(#id2)" stroke="#000" stroke-width="3" /><path d="M 121,279 121,279 &#10;S 130,276 140,273&#10;S 142,273 142,273 &#10;" fill="none" marker-end="url(#id2)" marker-start="url(#id2)" stroke="#000" stroke-width="3" /><path d="M 122,282 122,282 &#10;S 131,280 140,283&#10;S 149,285 153,293&#10;S 157,300 160,307&#10;S 165,312 169,318&#10;S 169,319 169,319 &#10;" fill="none" marker-end="url(#id2)" marker-start="url(#id2)" stroke="#000" stroke-width="3" /><path d="M 523,284 523,284 &#10;S 533,281 538,280&#10;" fill="none" marker-end="url(#id2)" marker-start="url(#id2)" stroke="#000" stroke-width="3" /><path d="M 162,286 162,286 &#10;S 172,286 182,288&#10;S 192,288 197,289&#10;" fill="none" marker-end="url(#id2)" marker-start="url(#id2)" stroke="#000" stroke-width="3" /><path d="M 754,287 754,287 &#10;S 754,297 754,307&#10;S 755,317 763,321&#10;S 772,323 780,327&#10;S 786,331 793,335&#10;S 794,343 793,353&#10;S 793,363 790,372&#10;S 791,372 791,372 &#10;" fill="none" marker-end="url(#id2)" marker-start="url(#id2)" stroke="#000" stroke-width="3" /><path d="M 755,288 755,288 &#10;S 765,291 775,292&#10;S 785,294 785,294 &#10;" fill="none" marker-end="url(#id2)" marker-start="url(#id2)" stroke="#000" stroke-width="3" /><path d="M 715,290 715,290 &#10;S 724,289 733,290&#10;S 737,299 740,309&#10;S 741,314 741,314 &#10;" fill="none" marker-end="url(#id2)" marker-start="url(#id2)" stroke="#000" stroke-width="3" /><path d="M 174,291 174,291 &#10;S 184,291 194,291&#10;S 197,291 197,291 &#10;" fill="none" marker-end="url(#id2)" marker-start="url(#id2)" stroke="#000" stroke-width="3" /><path d="M 553,291 553,291 &#10;S 563,290 573,287&#10;S 583,284 592,284&#10;S 598,288 603,293&#10;S 608,298 612,304&#10;S 616,310 619,317&#10;S 623,326 624,335&#10;" fill="none" marker-end="url(#id2)" marker-start="url(#id2)" stroke="#000" stroke-width="3" /><path d="M 174,292 174,292 &#10;S 181,294 191,297&#10;S 201,299 209,304&#10;S 210,309 210,309 &#10;" fill="none" marker-end="url(#id2)" marker-start="url(#id2)" stroke="#000" stroke-width="3" /><path d="M 346,259 346,259 &#10;S 352,263 358,267&#10;S 365,270 371,274&#10;S 378,277 387,281&#10;S 397,284 406,286&#10;S 416,290 426,292&#10;S 436,293 446,294&#10;S 456,294 466,293&#10;S 476,292 483,292&#10;" fill="none" marker-end="url(#id2)" marker-start="url(#id2)" stroke="#000" stroke-width="3" /><path d="M 520,288 520,288 &#10;S 522,293 531,293&#10;S 541,293 551,292&#10;S 552,292 552,292 &#10;" fill="none" marker-end="url(#id2)" marker-start="url(#id2)" stroke="#000" stroke-width="3" /><path d="M 484,291 484,291 &#10;S 494,290 497,294&#10;S 492,300 489,305&#10;" fill="none" marker-end="url(#id2)" marker-start="url(#id2)" stroke="#000" stroke-width="3" /><path d="M 714,291 714,291 &#10;S 712,297 708,303&#10;S 706,305 706,305 &#10;" fill="none" marker-end="url(#id2)" marker-start="url(#id2)" stroke="#000" stroke-width="3" /><path d="M 703,306 703,306 &#10;S 710,309 720,311&#10;S 730,313 740,315&#10;S 741,315 741,315 &#10;" fill="none" marker-end="url(#id2)" marker-start="url(#id2)" stroke="#000" stroke-width="3" /><path d="M 195,312 195,312 &#10;S 205,310 208,310&#10;" fill="none" marker-end="url(#id2)" marker-start="url(#id2)" stroke="#000" stroke-width="3" /><path d="M 163,287 163,287 &#10;S 166,294 169,301&#10;S 174,306 179,311&#10;S 185,315 194,313&#10;" fill="none" marker-end="url(#id2)" marker-start="url(#id2)" stroke="#000" stroke-width="3" /><path d="M 286,318 286,318 &#10;S 296,319 306,320&#10;S 316,322 326,324&#10;S 331,329 337,333&#10;S 342,338 347,343&#10;S 352,348 357,353&#10;S 362,358 367,360&#10;" fill="none" marker-end="url(#id2)" marker-start="url(#id2)" stroke="#000" stroke-width="3" /><path d="M 286,320 286,320 &#10;S 290,326 294,332&#10;S 298,338 298,338 &#10;" fill="none" marker-end="url(#id2)" marker-start="url(#id2)" stroke="#000" stroke-width="3" /><path d="M 452,322 452,322 &#10;S 461,320 470,317&#10;S 472,317 472,317 &#10;" fill="none" marker-end="url(#id2)" marker-start="url(#id2)" stroke="#000" stroke-width="3" /><path d="M 455,323 455,323 &#10;S 465,323 475,321&#10;S 485,318 493,315&#10;S 498,320 503,325&#10;S 509,329 513,335&#10;S 509,344 509,345&#10;" fill="none" marker-end="url(#id2)" marker-start="url(#id2)" stroke="#000" stroke-width="3" /><path d="M 644,325 644,325 &#10;S 651,328 658,331&#10;S 665,335 671,339&#10;S 677,343 683,347&#10;S 689,351 696,354&#10;S 697,356 697,356 &#10;" fill="none" marker-end="url(#id2)" marker-start="url(#id2)" stroke="#000" stroke-width="3" /><path d="M 229,330 229,330 &#10;S 236,326 245,323&#10;S 255,322 262,325&#10;S 268,329 275,332&#10;S 285,336 295,339&#10;S 298,339 298,339 &#10;" fill="none" marker-end="url(#id2)" marker-start="url(#id2)" stroke="#000" stroke-width="3" /><path d="M 228,331 228,331 &#10;S 235,333 238,335&#10;" fill="none" marker-end="url(#id2)" marker-start="url(#id2)" stroke="#000" stroke-width="3" /><path d="M 638,334 638,334 &#10;S 648,337 655,341&#10;S 665,344 675,348&#10;S 684,352 692,355&#10;S 698,357 698,357 &#10;" fill="none" marker-end="url(#id2)" marker-start="url(#id2)" stroke="#000" stroke-width="3" /><path d="M 418,336 418,336 &#10;S 428,337 438,337&#10;S 448,337 449,337&#10;" fill="none" marker-end="url(#id2)" marker-start="url(#id2)" stroke="#000" stroke-width="3" /><path d="M 464,336 464,336 &#10;S 474,336 484,335&#10;S 494,334 497,334&#10;" fill="none" marker-end="url(#id2)" marker-start="url(#id2)" stroke="#000" stroke-width="3" /><path d="M 120,338 120,338 &#10;S 126,334 132,330&#10;S 139,326 149,323&#10;S 159,321 164,321&#10;" fill="none" marker-end="url(#id2)" marker-start="url(#id2)" stroke="#000" stroke-width="3" /><path d="M 431,340 431,340 &#10;S 441,340 450,339&#10;" fill="none" marker-end="url(#id2)" marker-start="url(#id2)" stroke="#000" stroke-width="3" /><path d="M 464,339 464,339 &#10;S 474,339 484,339&#10;S 494,342 504,345&#10;S 509,346 509,346 &#10;" fill="none" marker-end="url(#id2)" marker-start="url(#id2)" stroke="#000" stroke-width="3" /><path d="M 418,337 418,337 &#10;S 422,344 430,341&#10;" fill="none" marker-end="url(#id2)" marker-start="url(#id2)" stroke="#000" stroke-width="3" /><path d="M 371,342 371,342 &#10;S 372,351 372,354&#10;" fill="none" marker-end="url(#id2)" marker-start="url(#id2)" stroke="#000" stroke-width="3" /><path d="M 368,350 368,350 &#10;S 367,359 368,359&#10;" fill="none" marker-end="url(#id2)" marker-start="url(#id2)" stroke="#000" stroke-width="3" /><path d="M 205,351 205,351 &#10;S 211,347 216,342&#10;S 222,338 232,337&#10;S 237,336 237,336 &#10;" fill="none" marker-end="url(#id2)" marker-start="url(#id2)" stroke="#000" stroke-width="3" /><path d="M 551,348 551,348 &#10;S 546,354 549,356&#10;S 550,356 550,356 &#10;" fill="none" marker-end="url(#id2)" marker-start="url(#id2)" stroke="#000" stroke-width="3" /><path d="M 180,358 180,358 &#10;S 185,353 191,349&#10;S 197,345 203,341&#10;S 210,337 212,341&#10;S 207,346 203,352&#10;S 205,352 205,352 &#10;" fill="none" marker-end="url(#id2)" marker-start="url(#id2)" stroke="#000" stroke-width="3" /><path d="M 636,335 636,335 &#10;S 633,342 629,349&#10;S 625,355 622,360&#10;S 627,362 637,362&#10;S 638,362 638,362 &#10;" fill="none" marker-end="url(#id2)" marker-start="url(#id2)" stroke="#000" stroke-width="3" /><path d="M 186,363 186,363 &#10;S 196,364 206,364&#10;S 216,364 226,364&#10;S 236,363 240,363&#10;" fill="none" marker-end="url(#id2)" marker-start="url(#id2)" stroke="#000" stroke-width="3" /><path d="M 548,357 548,357 &#10;S 554,351 560,347&#10;S 565,342 570,337&#10;S 576,333 585,330&#10;S 595,328 605,329&#10;S 615,330 616,339&#10;S 614,349 610,359&#10;S 608,363 608,363 &#10;" fill="none" marker-end="url(#id2)" marker-start="url(#id2)" stroke="#000" stroke-width="3" /><path d="M 185,364 185,364 &#10;S 188,369 192,375&#10;S 197,380 202,385&#10;S 207,390 212,395&#10;S 217,400 222,405&#10;S 228,409 233,414&#10;S 239,418 245,422&#10;S 251,424 251,424 &#10;" fill="none" marker-end="url(#id2)" marker-start="url(#id2)" stroke="#000" stroke-width="3" /><path d="M 644,323 644,323 &#10;S 654,324 664,323&#10;S 674,322 684,324&#10;S 694,328 702,332&#10;S 709,335 716,339&#10;S 722,343 728,347&#10;S 733,352 738,358&#10;S 741,364 739,366&#10;" fill="none" marker-end="url(#id2)" marker-start="url(#id2)" stroke="#000" stroke-width="3" /><path d="M 547,367 547,367 &#10;S 557,366 567,366&#10;S 577,365 587,365&#10;S 597,364 606,364&#10;" fill="none" marker-end="url(#id2)" marker-start="url(#id2)" stroke="#000" stroke-width="3" /><path d="M 639,361 639,361 &#10;S 649,361 659,361&#10;S 669,361 679,361&#10;S 689,361 699,362&#10;S 709,363 719,364&#10;S 729,364 737,367&#10;S 738,367 738,367 &#10;" fill="none" marker-end="url(#id2)" marker-start="url(#id2)" stroke="#000" stroke-width="3" /><path d="M 725,372 725,372 &#10;S 735,372 736,376&#10;" fill="none" marker-end="url(#id2)" marker-start="url(#id2)" stroke="#000" stroke-width="3" /><path d="M 241,362 241,362 &#10;S 251,361 261,361&#10;S 271,361 281,362&#10;S 291,362 301,363&#10;S 311,363 321,364&#10;S 331,364 341,365&#10;S 351,366 361,366&#10;S 369,369 369,378&#10;S 368,379 368,379 &#10;" fill="none" marker-end="url(#id2)" marker-start="url(#id2)" stroke="#000" stroke-width="3" /><path d="M 233,385 233,385 &#10;S 243,384 253,384&#10;S 261,386 262,396&#10;S 266,404 269,411&#10;S 274,416 279,421&#10;S 286,424 293,426&#10;" fill="none" marker-end="url(#id2)" marker-start="url(#id2)" stroke="#000" stroke-width="3" /><path d="M 232,386 232,386 &#10;S 234,394 239,399&#10;S 243,405 247,411&#10;S 251,418 252,423&#10;" fill="none" marker-end="url(#id2)" marker-start="url(#id2)" stroke="#000" stroke-width="3" /><path d="M 339,387 339,387 &#10;S 347,390 354,393&#10;S 359,398 364,403&#10;S 369,408 374,413&#10;S 375,413 375,413 &#10;" fill="none" marker-end="url(#id2)" marker-start="url(#id2)" stroke="#000" stroke-width="3" /><path d="M 179,359 179,359 &#10;S 175,366 173,374&#10;S 172,384 177,388&#10;" fill="none" marker-end="url(#id2)" marker-start="url(#id2)" stroke="#000" stroke-width="3" /><path d="M 270,387 270,387 &#10;S 279,386 288,389&#10;S 293,395 290,402&#10;" fill="none" marker-end="url(#id2)" marker-start="url(#id2)" stroke="#000" stroke-width="3" /><path d="M 269,388 269,388 &#10;S 267,396 272,402&#10;S 278,406 288,403&#10;S 288,404 288,404 &#10;" fill="none" marker-end="url(#id2)" marker-start="url(#id2)" stroke="#000" stroke-width="3" /><path d="M 598,391 598,391 &#10;S 607,389 615,393&#10;S 618,401 616,405&#10;" fill="none" marker-end="url(#id2)" marker-start="url(#id2)" stroke="#000" stroke-width="3" /><path d="M 546,368 546,368 &#10;S 546,377 555,380&#10;S 558,384 554,390&#10;S 550,397 548,405&#10;S 555,408 557,406&#10;" fill="none" marker-end="url(#id2)" marker-start="url(#id2)" stroke="#000" stroke-width="3" /><path d="M 598,392 598,392 &#10;S 597,402 601,408&#10;S 611,408 615,406&#10;" fill="none" marker-end="url(#id2)" marker-start="url(#id2)" stroke="#000" stroke-width="3" /><path d="M 365,381 365,381 &#10;S 369,387 373,393&#10;S 377,399 378,407&#10;S 375,412 375,412 &#10;" fill="none" marker-end="url(#id2)" marker-start="url(#id2)" stroke="#000" stroke-width="3" /><path d="M 618,412 618,412 &#10;S 625,413 626,419&#10;" fill="none" marker-end="url(#id2)" marker-start="url(#id2)" stroke="#000" stroke-width="3" /><path d="M 617,413 617,413 &#10;S 619,420 625,420&#10;" fill="none" marker-end="url(#id2)" marker-start="url(#id2)" stroke="#000" stroke-width="3" /><path d="M 295,406 295,406 &#10;S 303,406 305,414&#10;S 304,415 304,415 &#10;" fill="none" marker-end="url(#id2)" marker-start="url(#id2)" stroke="#000" stroke-width="3" /><path d="M 294,407 294,407 &#10;S 294,415 302,417&#10;S 303,416 303,416 &#10;" fill="none" marker-end="url(#id2)" marker-start="url(#id2)" stroke="#000" stroke-width="3" /><path d="M 343,420 343,420 &#10;S 353,419 355,423&#10;" fill="none" marker-end="url(#id2)" marker-start="url(#id2)" stroke="#000" stroke-width="3" /><path d="M 339,388 339,388 &#10;S 336,398 332,406&#10;S 329,411 324,416&#10;S 320,420 320,420 &#10;" fill="none" marker-end="url(#id2)" marker-start="url(#id2)" stroke="#000" stroke-width="3" /><path d="M 341,421 341,421 &#10;S 347,424 354,424&#10;" fill="none" marker-end="url(#id2)" marker-start="url(#id2)" stroke="#000" stroke-width="3" /><path d="M 658,385 658,385 &#10;S 656,394 653,402&#10;S 650,408 646,414&#10;S 640,420 639,422&#10;" fill="none" marker-end="url(#id2)" marker-start="url(#id2)" stroke="#000" stroke-width="3" /><path d="M 274,425 274,425 &#10;S 284,427 292,428&#10;" fill="none" marker-end="url(#id2)" marker-start="url(#id2)" stroke="#000" stroke-width="3" /><path d="M 659,384 659,384 &#10;S 669,384 679,384&#10;S 687,385 689,390&#10;S 686,395 680,401&#10;S 676,406 672,411&#10;S 666,417 663,422&#10;S 666,428 671,426&#10;" fill="none" marker-end="url(#id2)" marker-start="url(#id2)" stroke="#000" stroke-width="3" /><path d="M 302,428 302,428 &#10;S 308,424 316,422&#10;" fill="none" marker-end="url(#id2)" marker-start="url(#id2)" stroke="#000" stroke-width="3" /><path d="M 303,427 303,427 &#10;S 313,426 322,426&#10;S 322,428 322,428 &#10;" fill="none" marker-end="url(#id2)" marker-start="url(#id2)" stroke="#000" stroke-width="3" /><path d="M 555,407 555,407 &#10;S 561,401 567,397&#10;S 573,393 578,388&#10;S 585,386 586,396&#10;S 589,406 593,415&#10;S 597,421 603,425&#10;S 612,428 622,429&#10;S 627,428 627,428 &#10;" fill="none" marker-end="url(#id2)" marker-start="url(#id2)" stroke="#000" stroke-width="3" /><path d="M 274,426 274,426 &#10;S 279,430 289,433&#10;S 299,433 309,432&#10;S 314,431 314,431 &#10;" fill="none" marker-end="url(#id2)" marker-start="url(#id2)" stroke="#000" stroke-width="3" /><path d="M 372,343 372,343 &#10;S 378,348 384,353&#10;S 388,359 392,365&#10;S 396,371 401,377&#10;S 404,385 406,395&#10;S 406,405 406,415&#10;S 404,425 403,435&#10;S 401,445 397,454&#10;S 394,463 390,471&#10;S 386,478 382,484&#10;S 379,487 379,487 &#10;" fill="none" marker-end="url(#id2)" marker-start="url(#id2)" stroke="#000" stroke-width="3" /><path d="M 741,372 741,372 &#10;S 748,377 749,387&#10;S 749,397 748,407&#10;S 747,417 745,427&#10;S 743,437 739,447&#10;S 735,455 733,461&#10;S 728,468 725,474&#10;S 719,480 716,485&#10;S 713,488 713,488 &#10;" fill="none" marker-end="url(#id2)" marker-start="url(#id2)" stroke="#000" stroke-width="3" /><path d="M 425,377 425,377 &#10;S 425,386 428,395&#10;S 427,403 426,413&#10;S 425,423 424,433&#10;S 423,443 419,451&#10;S 416,459 412,466&#10;S 409,472 405,478&#10;S 401,484 395,490&#10;S 391,495 387,500&#10;S 385,502 385,502 &#10;" fill="none" marker-end="url(#id2)" marker-start="url(#id2)" stroke="#000" stroke-width="3" /><path d="M 784,378 784,378 &#10;S 781,385 777,394&#10;S 774,403 771,413&#10;S 768,423 766,433&#10;S 762,442 758,451&#10;S 755,458 752,465&#10;S 747,472 744,478&#10;S 740,484 734,490&#10;S 731,495 725,501&#10;S 720,506 721,506&#10;" fill="none" marker-end="url(#id2)" marker-start="url(#id2)" stroke="#000" stroke-width="3" /><path d="M 313,518 313,518 &#10;S 323,516 329,515&#10;" fill="none" marker-end="url(#id2)" marker-start="url(#id2)" stroke="#000" stroke-width="3" /><path d="M 172,392 172,392 &#10;S 172,401 173,411&#10;S 174,421 176,431&#10;S 179,441 183,451&#10;S 187,458 190,466&#10;S 194,472 199,477&#10;S 203,483 208,488&#10;S 213,493 219,497&#10;S 225,501 232,505&#10;S 241,509 250,513&#10;S 260,517 270,519&#10;S 280,520 290,521&#10;S 300,520 310,519&#10;S 312,519 312,519 &#10;" fill="none" marker-end="url(#id2)" marker-start="url(#id2)" stroke="#000" stroke-width="3" /><path d="M 649,519 649,519 &#10;S 659,517 669,514&#10;S 678,510 685,507&#10;S 689,505 689,505 &#10;" fill="none" marker-end="url(#id2)" marker-start="url(#id2)" stroke="#000" stroke-width="3" /><path d="M 524,370 524,370 &#10;S 519,376 516,383&#10;S 515,393 515,403&#10;S 515,413 516,423&#10;S 517,433 518,443&#10;S 521,453 525,463&#10;S 529,470 533,477&#10;S 538,482 542,488&#10;S 548,492 554,497&#10;S 560,501 566,505&#10;S 575,508 583,512&#10;S 593,515 603,517&#10;S 613,519 623,520&#10;S 633,521 643,520&#10;S 648,520 648,520 &#10;" fill="none" marker-end="url(#id2)" marker-start="url(#id2)" stroke="#000" stroke-width="3" /><path d="M 337,528 337,528 &#10;S 347,525 356,522&#10;" fill="none" marker-end="url(#id2)" marker-start="url(#id2)" stroke="#000" stroke-width="3" /><path d="M 312,533 312,533 &#10;S 322,532 332,530&#10;S 336,529 336,529 &#10;" fill="none" marker-end="url(#id2)" marker-start="url(#id2)" stroke="#000" stroke-width="3" /><path d="M 119,339 119,339 &#10;S 118,347 118,357&#10;S 120,367 121,377&#10;S 128,381 137,384&#10;S 142,389 145,397&#10;S 148,407 151,417&#10;S 153,427 156,435&#10;S 159,445 163,455&#10;S 167,462 171,468&#10;S 175,475 179,481&#10;S 184,487 188,493&#10;S 192,499 197,504&#10;S 203,508 208,513&#10;S 214,517 221,520&#10;S 228,524 236,528&#10;S 246,531 256,533&#10;S 266,535 276,536&#10;S 286,536 296,535&#10;S 306,534 311,534&#10;" fill="none" marker-end="url(#id2)" marker-start="url(#id2)" stroke="#000" stroke-width="3" /><path d="M 698,536 698,536 &#10;S 699,544 706,544&#10;" fill="none" marker-end="url(#id2)" marker-start="url(#id2)" stroke="#000" stroke-width="3" /><path d="M 649,537 649,537 &#10;S 659,535 669,533&#10;S 679,530 685,528&#10;" fill="none" marker-end="url(#id2)" marker-start="url(#id2)" stroke="#000" stroke-width="3" /><path d="M 428,373 428,373 &#10;S 434,369 443,366&#10;S 453,365 463,364&#10;S 473,364 483,367&#10;S 489,371 494,376&#10;S 495,386 493,396&#10;S 494,406 495,416&#10;S 496,426 498,436&#10;S 500,446 502,456&#10;S 506,466 509,474&#10;S 513,482 517,488&#10;S 521,494 526,500&#10;S 531,505 537,510&#10;S 543,515 549,519&#10;S 556,523 563,527&#10;S 573,531 583,534&#10;S 593,536 603,537&#10;S 613,538 623,539&#10;S 633,539 643,538&#10;S 648,538 648,538 &#10;" fill="none" marker-end="url(#id2)" marker-start="url(#id2)" stroke="#000" stroke-width="3" /><path d="M 699,535 699,535 &#10;S 707,535 706,543&#10;" fill="none" marker-end="url(#id2)" marker-start="url(#id2)" stroke="#000" stroke-width="3" /><path d="M 446,566 446,566 &#10;S 454,568 463,572&#10;S 464,574 464,574 &#10;" fill="none" marker-end="url(#id2)" marker-start="url(#id2)" stroke="#000" stroke-width="3" /><path d="M 480,608 480,608 &#10;S 486,604 494,599&#10;S 504,597 514,597&#10;S 517,603 517,603 &#10;" fill="none" marker-end="url(#id2)" marker-start="url(#id2)" stroke="#000" stroke-width="3" /><path d="M 402,597 402,597 &#10;S 411,595 421,596&#10;S 429,599 435,603&#10;S 440,608 445,613&#10;S 454,616 464,617&#10;S 471,616 471,616 &#10;" fill="none" marker-end="url(#id2)" marker-start="url(#id2)" stroke="#000" stroke-width="3" /><path d="M 510,605 510,605 &#10;S 509,614 506,618&#10;" fill="none" marker-end="url(#id2)" marker-start="url(#id2)" stroke="#000" stroke-width="3" /><path d="M 400,598 400,598 &#10;S 400,604 404,611&#10;S 412,615 419,619&#10;S 426,622 433,625&#10;S 439,629 446,632&#10;S 451,638 461,639&#10;S 470,639 477,637&#10;" fill="none" marker-end="url(#id2)" marker-start="url(#id2)" stroke="#000" stroke-width="3" /><path d="M 677,638 677,638 &#10;S 681,645 680,651&#10;" fill="none" marker-end="url(#id2)" marker-start="url(#id2)" stroke="#000" stroke-width="3" /><path d="M 677,639 677,639 &#10;S 676,649 680,652&#10;" fill="none" marker-end="url(#id2)" marker-start="url(#id2)" stroke="#000" stroke-width="3" /><path d="M 451,646 451,646 &#10;S 456,651 459,654&#10;" fill="none" marker-end="url(#id2)" marker-start="url(#id2)" stroke="#000" stroke-width="3" /><path d="M 450,647 450,647 &#10;S 451,654 457,655&#10;" fill="none" marker-end="url(#id2)" marker-start="url(#id2)" stroke="#000" stroke-width="3" /><path d="M 247,653 247,653 &#10;S 245,662 243,672&#10;S 246,679 246,678&#10;" fill="none" marker-end="url(#id2)" marker-start="url(#id2)" stroke="#000" stroke-width="3" /><path d="M 459,671 459,671 &#10;S 463,676 462,684&#10;" fill="none" marker-end="url(#id2)" marker-start="url(#id2)" stroke="#000" stroke-width="3" /><path d="M 653,673 653,673 &#10;S 658,679 657,688&#10;" fill="none" marker-end="url(#id2)" marker-start="url(#id2)" stroke="#000" stroke-width="3" /><path d="M 652,674 652,674 &#10;S 651,683 656,689&#10;" fill="none" marker-end="url(#id2)" marker-start="url(#id2)" stroke="#000" stroke-width="3" /><path d="M 459,677 459,677 &#10;S 460,685 462,685&#10;" fill="none" marker-end="url(#id2)" marker-start="url(#id2)" stroke="#000" stroke-width="3" /><path d="M 545,678 545,678 &#10;S 550,683 553,690&#10;S 553,696 553,696 &#10;" fill="none" marker-end="url(#id2)" marker-start="url(#id2)" stroke="#000" stroke-width="3" /><path d="M 543,679 543,679 &#10;S 544,688 548,695&#10;S 551,697 551,697 &#10;" fill="none" marker-end="url(#id2)" marker-start="url(#id2)" stroke="#000" stroke-width="3" /><path d="M 510,681 510,681 &#10;S 514,687 512,691&#10;" fill="none" marker-end="url(#id2)" marker-start="url(#id2)" stroke="#000" stroke-width="3" /><path d="M 510,682 510,682 &#10;S 513,690 514,691&#10;" fill="none" marker-end="url(#id2)" marker-start="url(#id2)" stroke="#000" stroke-width="3" /><path d="M 361,686 361,686 &#10;S 362,691 359,699&#10;S 358,701 358,701 &#10;" fill="none" marker-end="url(#id2)" marker-start="url(#id2)" stroke="#000" stroke-width="3" /><path d="M 572,687 572,687 &#10;S 576,693 580,700&#10;S 580,705 580,705 &#10;" fill="none" marker-end="url(#id2)" marker-start="url(#id2)" stroke="#000" stroke-width="3" /><path d="M 570,688 570,688 &#10;S 573,698 577,704&#10;S 580,706 580,706 &#10;" fill="none" marker-end="url(#id2)" marker-start="url(#id2)" stroke="#000" stroke-width="3" /><path d="M 374,691 374,691 &#10;S 375,699 373,704&#10;" fill="none" marker-end="url(#id2)" marker-start="url(#id2)" stroke="#000" stroke-width="3" /><path d="M 470,693 470,693 &#10;S 480,691 490,693&#10;S 500,696 510,700&#10;S 519,703 529,707&#10;S 539,711 549,715&#10;S 559,719 569,722&#10;S 579,726 589,729&#10;S 599,731 603,738&#10;S 603,741 603,741 &#10;" fill="none" marker-end="url(#id2)" marker-start="url(#id2)" stroke="#000" stroke-width="3" /><path d="M 371,695 371,695 &#10;S 369,703 372,705&#10;" fill="none" marker-end="url(#id2)" marker-start="url(#id2)" stroke="#000" stroke-width="3" /><path d="M 570,697 570,697 &#10;S 570,704 572,707&#10;" fill="none" marker-end="url(#id2)" marker-start="url(#id2)" stroke="#000" stroke-width="3" /><path d="M 357,688 357,688 &#10;S 355,694 352,704&#10;S 357,702 357,702 &#10;" fill="none" marker-end="url(#id2)" marker-start="url(#id2)" stroke="#000" stroke-width="3" /><path d="M 258,709 258,709 &#10;S 260,716 261,716&#10;" fill="none" marker-end="url(#id2)" marker-start="url(#id2)" stroke="#000" stroke-width="3" /><path d="M 380,713 380,713 &#10;S 389,709 398,705&#10;S 404,701 413,697&#10;S 422,694 432,692&#10;S 442,692 452,694&#10;S 462,695 469,694&#10;" fill="none" marker-end="url(#id2)" marker-start="url(#id2)" stroke="#000" stroke-width="3" /><path d="M 323,733 323,733 &#10;S 330,729 340,728&#10;S 347,727 347,727 &#10;" fill="none" marker-end="url(#id2)" marker-start="url(#id2)" stroke="#000" stroke-width="3" /><path d="M 377,736 377,736 &#10;S 387,734 397,732&#10;S 407,731 417,728&#10;S 427,725 437,726&#10;S 447,729 457,732&#10;S 467,732 467,732 &#10;" fill="none" marker-end="url(#id2)" marker-start="url(#id2)" stroke="#000" stroke-width="3" /><path d="M 355,740 355,740 &#10;S 365,739 375,737&#10;S 376,737 376,737 &#10;" fill="none" marker-end="url(#id2)" marker-start="url(#id2)" stroke="#000" stroke-width="3" /><path d="M 322,734 322,734 &#10;S 321,743 330,742&#10;S 340,741 350,741&#10;S 354,741 354,741 &#10;" fill="none" marker-end="url(#id2)" marker-start="url(#id2)" stroke="#000" stroke-width="3" /><path d="M 468,731 468,731 &#10;S 478,729 488,729&#10;S 498,729 508,729&#10;S 518,732 528,735&#10;S 538,737 548,739&#10;S 558,741 568,742&#10;S 578,743 588,743&#10;S 598,743 601,742&#10;" fill="none" marker-end="url(#id2)" marker-start="url(#id2)" stroke="#000" stroke-width="3" /><path d="M 449,802 449,802 &#10;S 459,802 469,802&#10;S 479,802 481,809&#10;S 480,810 480,810 &#10;" fill="none" marker-end="url(#id2)" marker-start="url(#id2)" stroke="#000" stroke-width="3" /><path d="M 447,804 447,804 &#10;S 450,811 459,813&#10;S 469,813 479,811&#10;" fill="none" marker-end="url(#id2)" marker-start="url(#id2)" stroke="#000" stroke-width="3" /><path d="M 453,825 453,825 &#10;S 458,830 458,839&#10;" fill="none" marker-end="url(#id2)" marker-start="url(#id2)" stroke="#000" stroke-width="3" /><path d="M 452,826 452,826 &#10;S 451,835 457,840&#10;" fill="none" marker-end="url(#id2)" marker-start="url(#id2)" stroke="#000" stroke-width="3" /></svg>