<?xml version="1.0" encoding="utf-8" ?>
<svg baseProfile="full" height="512px" version="1.1" width="507px" xmlns="http://www.w3.org/2000/svg" xmlns:ev="http://www.w3.org/2001/xml-events" xmlns:xlink="http://www.w3.org/1999/xlink"><defs><marker id="id230" markerHeight="4" markerWidth="4" orient="auto" refX="1" refY="1"><circle cx="1" cy="1" fill="black" r="0.5" /></marker></defs><path d="M 205,76 205,76 &#10;S 199,95 194,115&#10;S 190,131 190,131 &#10;" fill="none" marker-end="url(#id230)" marker-start="url(#id230)" stroke="#000" stroke-width="3" /><path d="M 211,76 211,76 &#10;S 218,95 224,115&#10;S 229,134 234,154&#10;S 240,174 248,193&#10;S 254,213 254,233&#10;S 256,244 256,244 &#10;" fill="none" marker-end="url(#id230)" marker-start="url(#id230)" stroke="#000" stroke-width="3" /><path d="M 309,81 309,81 &#10;S 317,97 322,117&#10;S 327,136 331,155&#10;S 336,175 342,195&#10;S 346,214 347,217&#10;" fill="none" marker-end="url(#id230)" marker-start="url(#id230)" stroke="#000" stroke-width="3" /><path d="M 308,82 308,82 &#10;S 302,101 296,121&#10;S 291,141 284,161&#10;S 278,181 272,200&#10;S 267,217 273,234&#10;S 275,242 275,242 &#10;" fill="none" marker-end="url(#id230)" marker-start="url(#id230)" stroke="#000" stroke-width="3" /><path d="M 504,116 504,116 &#10;S 498,131 491,147&#10;S 483,167 481,173&#10;" fill="none" marker-end="url(#id230)" marker-start="url(#id230)" stroke="#000" stroke-width="3" /><path d="M 506,117 506,117 &#10;S 506,137 506,157&#10;S 505,165 505,165 &#10;" fill="none" marker-end="url(#id230)" marker-start="url(#id230)" stroke="#000" stroke-width="3" /><path d="M 54,139 54,139 &#10;S 63,152 70,167&#10;S 77,186 84,205&#10;S 91,221 99,237&#10;S 106,251 111,269&#10;S 112,289 114,309&#10;S 116,329 118,349&#10;S 120,369 122,389&#10;S 124,409 126,429&#10;S 128,449 129,469&#10;S 131,489 131,493&#10;" fill="none" marker-end="url(#id230)" marker-start="url(#id230)" stroke="#000" stroke-width="3" /><path d="M 51,141 51,141 &#10;S 46,161 43,181&#10;S 46,183 46,183 &#10;" fill="none" marker-end="url(#id230)" marker-start="url(#id230)" stroke="#000" stroke-width="3" /><path d="M 409,165 409,165 &#10;S 402,182 396,201&#10;S 389,221 383,239&#10;S 376,257 369,274&#10;S 369,276 369,276 &#10;" fill="none" marker-end="url(#id230)" marker-start="url(#id230)" stroke="#000" stroke-width="3" /><path d="M 411,167 411,167 &#10;S 418,183 422,203&#10;S 425,223 428,243&#10;S 432,263 437,283&#10;S 441,303 439,323&#10;S 437,343 435,363&#10;S 433,383 433,388&#10;" fill="none" marker-end="url(#id230)" marker-start="url(#id230)" stroke="#000" stroke-width="3" /><path d="M 2,177 2,177 &#10;S 9,191 16,206&#10;S 24,224 30,242&#10;S 31,244 31,244 &#10;" fill="none" marker-end="url(#id230)" marker-start="url(#id230)" stroke="#000" stroke-width="3" /><path d="M 1,180 1,180 &#10;S 1,200 1,220&#10;S 1,234 1,234 &#10;" fill="none" marker-end="url(#id230)" marker-start="url(#id230)" stroke="#000" stroke-width="3" /><path d="M 179,182 179,182 &#10;S 172,201 170,208&#10;" fill="none" marker-end="url(#id230)" marker-start="url(#id230)" stroke="#000" stroke-width="3" /><path d="M 42,184 42,184 &#10;S 40,204 37,224&#10;S 32,241 32,241 &#10;" fill="none" marker-end="url(#id230)" marker-start="url(#id230)" stroke="#000" stroke-width="3" /><path d="M 505,185 505,185 &#10;S 506,205 506,225&#10;S 505,240 505,240 &#10;" fill="none" marker-end="url(#id230)" marker-start="url(#id230)" stroke="#000" stroke-width="3" /><path d="M 504,204 504,204 &#10;S 502,221 504,236&#10;" fill="none" marker-end="url(#id230)" marker-start="url(#id230)" stroke="#000" stroke-width="3" /><path d="M 356,208 356,208 &#10;S 361,225 364,245&#10;S 366,265 367,277&#10;" fill="none" marker-end="url(#id230)" marker-start="url(#id230)" stroke="#000" stroke-width="3" /><path d="M 267,222 267,222 &#10;S 259,236 256,243&#10;" fill="none" marker-end="url(#id230)" marker-start="url(#id230)" stroke="#000" stroke-width="3" /><path d="M 493,224 493,224 &#10;S 486,241 481,254&#10;" fill="none" marker-end="url(#id230)" marker-start="url(#id230)" stroke="#000" stroke-width="3" /><path d="M 459,227 459,227 &#10;S 454,246 452,266&#10;S 450,286 448,306&#10;S 446,326 444,346&#10;S 443,366 440,386&#10;S 436,406 431,424&#10;S 430,428 430,428 &#10;" fill="none" marker-end="url(#id230)" marker-start="url(#id230)" stroke="#000" stroke-width="3" /><path d="M 202,230 202,230 &#10;S 209,247 212,267&#10;S 213,283 213,283 &#10;" fill="none" marker-end="url(#id230)" marker-start="url(#id230)" stroke="#000" stroke-width="3" /><path d="M 340,230 340,230 &#10;S 339,246 342,266&#10;S 343,285 343,285 &#10;" fill="none" marker-end="url(#id230)" marker-start="url(#id230)" stroke="#000" stroke-width="3" /><path d="M 200,232 200,232 &#10;S 193,246 187,261&#10;S 185,266 185,266 &#10;" fill="none" marker-end="url(#id230)" marker-start="url(#id230)" stroke="#000" stroke-width="3" /><path d="M 279,237 279,237 &#10;S 297,241 311,249&#10;S 315,251 315,251 &#10;" fill="none" marker-end="url(#id230)" marker-start="url(#id230)" stroke="#000" stroke-width="3" /><path d="M 322,247 322,247 &#10;S 316,261 315,281&#10;S 321,298 330,309&#10;S 335,310 335,310 &#10;" fill="none" marker-end="url(#id230)" marker-start="url(#id230)" stroke="#000" stroke-width="3" /><path d="M 253,250 253,250 &#10;S 246,268 250,282&#10;S 260,287 260,287 &#10;" fill="none" marker-end="url(#id230)" marker-start="url(#id230)" stroke="#000" stroke-width="3" /><path d="M 314,262 314,262 &#10;S 308,279 301,297&#10;S 294,314 294,315&#10;" fill="none" marker-end="url(#id230)" marker-start="url(#id230)" stroke="#000" stroke-width="3" /><path d="M 279,264 279,264 &#10;S 281,284 285,304&#10;S 289,323 282,338&#10;S 278,346 278,346 &#10;" fill="none" marker-end="url(#id230)" marker-start="url(#id230)" stroke="#000" stroke-width="3" /><path d="M 183,267 183,267 &#10;S 184,284 190,289&#10;" fill="none" marker-end="url(#id230)" marker-start="url(#id230)" stroke="#000" stroke-width="3" /><path d="M 243,269 243,269 &#10;S 237,287 229,304&#10;S 223,317 223,317 &#10;" fill="none" marker-end="url(#id230)" marker-start="url(#id230)" stroke="#000" stroke-width="3" /><path d="M 44,272 44,272 &#10;S 51,288 51,306&#10;S 47,323 47,323 &#10;" fill="none" marker-end="url(#id230)" marker-start="url(#id230)" stroke="#000" stroke-width="3" /><path d="M 458,294 458,294 &#10;S 453,312 460,325&#10;S 473,334 480,349&#10;S 486,350 486,350 &#10;" fill="none" marker-end="url(#id230)" marker-start="url(#id230)" stroke="#000" stroke-width="3" /><path d="M 171,297 171,297 &#10;S 165,313 159,327&#10;S 151,341 144,358&#10;S 143,378 141,398&#10;S 139,418 138,438&#10;S 136,458 134,478&#10;S 133,490 133,490 &#10;" fill="none" marker-end="url(#id230)" marker-start="url(#id230)" stroke="#000" stroke-width="3" /><path d="M 372,312 372,312 &#10;S 375,332 376,349&#10;" fill="none" marker-end="url(#id230)" marker-start="url(#id230)" stroke="#000" stroke-width="3" /><path d="M 374,313 374,313 &#10;S 383,327 386,331&#10;" fill="none" marker-end="url(#id230)" marker-start="url(#id230)" stroke="#000" stroke-width="3" /><path d="M 391,325 391,325 &#10;S 383,342 380,349&#10;" fill="none" marker-end="url(#id230)" marker-start="url(#id230)" stroke="#000" stroke-width="3" /><path d="M 422,325 422,325 &#10;S 425,343 428,362&#10;S 430,381 434,399&#10;S 434,405 434,405 &#10;" fill="none" marker-end="url(#id230)" marker-start="url(#id230)" stroke="#000" stroke-width="3" /><path d="M 391,330 391,330 &#10;S 403,340 409,343&#10;" fill="none" marker-end="url(#id230)" marker-start="url(#id230)" stroke="#000" stroke-width="3" /><path d="M 350,333 350,333 &#10;S 355,353 355,361&#10;" fill="none" marker-end="url(#id230)" marker-start="url(#id230)" stroke="#000" stroke-width="3" /><path d="M 500,337 500,337 &#10;S 506,351 506,371&#10;S 506,391 505,411&#10;S 505,431 505,438&#10;" fill="none" marker-end="url(#id230)" marker-start="url(#id230)" stroke="#000" stroke-width="3" /><path d="M 1,339 1,339 &#10;S 1,359 1,379&#10;S 1,399 1,419&#10;S 1,439 1,459&#10;S 1,479 1,499&#10;S 1,511 1,511 &#10;" fill="none" marker-end="url(#id230)" marker-start="url(#id230)" stroke="#000" stroke-width="3" /><path d="M 378,350 378,350 &#10;S 370,367 370,369&#10;" fill="none" marker-end="url(#id230)" marker-start="url(#id230)" stroke="#000" stroke-width="3" /><path d="M 146,360 146,360 &#10;S 155,375 161,389&#10;S 163,389 163,389 &#10;" fill="none" marker-end="url(#id230)" marker-start="url(#id230)" stroke="#000" stroke-width="3" /><path d="M 256,368 256,368 &#10;S 269,376 266,396&#10;S 264,416 262,436&#10;S 259,456 257,476&#10;S 255,496 253,511&#10;" fill="none" marker-end="url(#id230)" marker-start="url(#id230)" stroke="#000" stroke-width="3" /><path d="M 364,377 364,377 &#10;S 357,395 352,414&#10;S 349,434 346,454&#10;S 343,474 340,494&#10;S 337,511 337,511 &#10;" fill="none" marker-end="url(#id230)" marker-start="url(#id230)" stroke="#000" stroke-width="3" /><path d="M 360,417 360,417 &#10;S 370,427 379,439&#10;S 387,442 387,442 &#10;" fill="none" marker-end="url(#id230)" marker-start="url(#id230)" stroke="#000" stroke-width="3" /><path d="M 428,429 428,429 &#10;S 428,447 424,467&#10;S 421,486 417,506&#10;S 417,511 417,511 &#10;" fill="none" marker-end="url(#id230)" marker-start="url(#id230)" stroke="#000" stroke-width="3" /><path d="M 428,431 428,431 &#10;S 424,451 421,471&#10;S 417,491 413,511&#10;" fill="none" marker-end="url(#id230)" marker-start="url(#id230)" stroke="#000" stroke-width="3" /><path d="M 506,444 506,444 &#10;S 506,464 506,484&#10;S 506,504 506,511&#10;" fill="none" marker-end="url(#id230)" marker-start="url(#id230)" stroke="#000" stroke-width="3" /><path d="M 504,446 504,446 &#10;S 501,466 497,486&#10;S 493,506 492,511&#10;" fill="none" marker-end="url(#id230)" marker-start="url(#id230)" stroke="#000" stroke-width="3" /></svg>