<?xml version="1.0" encoding="utf-8" ?>
<svg baseProfile="full" height="922px" version="1.1" width="922px" xmlns="http://www.w3.org/2000/svg" xmlns:ev="http://www.w3.org/2001/xml-events" xmlns:xlink="http://www.w3.org/1999/xlink"><defs><marker id="id2" markerHeight="4" markerWidth="4" orient="auto" refX="1" refY="1"><circle cx="1" cy="1" fill="black" r="0.5" /></marker></defs><path d="M 433,189 433,189 &#10;S 428,194 422,198&#10;S 415,201 409,197&#10;S 403,192 399,186&#10;S 394,181 391,174&#10;S 387,167 384,157&#10;S 382,147 382,137&#10;S 383,127 386,119&#10;S 391,114 395,119&#10;S 394,129 394,139&#10;S 397,149 400,159&#10;S 404,165 408,171&#10;S 413,176 419,180&#10;S 425,184 435,187&#10;S 445,189 455,188&#10;S 465,187 475,184&#10;S 482,180 488,176&#10;S 494,172 498,166&#10;S 498,157 495,150&#10;S 488,146 483,142&#10;S 489,138 497,135&#10;S 507,135 515,139&#10;S 519,145 522,153&#10;S 523,163 520,173&#10;S 517,180 513,186&#10;S 507,190 516,194&#10;S 526,198 536,202&#10;S 546,205 556,209&#10;S 564,212 570,216&#10;S 577,219 583,223&#10;S 589,227 594,226&#10;S 594,216 594,206&#10;S 592,196 589,187&#10;S 585,181 579,177&#10;S 573,173 563,170&#10;S 559,166 565,162&#10;S 575,165 582,169&#10;S 588,173 593,178&#10;S 597,184 600,192&#10;S 603,202 604,212&#10;S 603,222 601,232&#10;S 604,239 609,244&#10;S 614,249 619,254&#10;S 623,260 627,266&#10;S 633,269 643,268&#10;S 653,267 663,267&#10;S 672,268 682,268&#10;S 692,267 701,265&#10;S 703,255 703,245&#10;S 704,235 714,234&#10;S 721,238 727,242&#10;S 732,247 737,252&#10;S 741,258 745,264&#10;S 748,273 755,276&#10;S 761,280 769,283&#10;S 777,287 783,291&#10;S 780,293 770,291&#10;S 760,290 753,291&#10;S 754,301 755,311&#10;S 757,319 767,322&#10;S 774,325 783,328&#10;S 789,333 795,337&#10;S 793,347 793,357&#10;S 793,367 788,373&#10;S 784,379 780,387&#10;S 777,396 773,405&#10;S 771,415 768,425&#10;S 765,435 762,444&#10;S 758,452 754,459&#10;S 751,467 746,473&#10;S 742,479 738,485&#10;S 734,491 729,496&#10;S 725,502 720,507&#10;S 714,511 708,515&#10;S 702,519 696,523&#10;S 687,527 677,530&#10;S 667,533 657,536&#10;S 647,538 637,539&#10;S 627,539 617,538&#10;S 607,538 597,536&#10;S 587,534 577,532&#10;S 567,528 559,524&#10;S 552,520 546,516&#10;S 539,512 534,507&#10;S 528,502 523,496&#10;S 519,490 515,484&#10;S 511,478 507,470&#10;S 504,460 501,450&#10;S 499,440 497,430&#10;S 495,420 494,410&#10;S 494,400 494,390&#10;S 496,380 492,372&#10;S 485,369 477,365&#10;S 467,364 457,364&#10;S 447,366 437,367&#10;S 431,372 426,377&#10;S 425,386 428,395&#10;S 427,403 426,413&#10;S 425,423 424,433&#10;S 423,443 419,451&#10;S 416,459 412,466&#10;S 408,472 404,478&#10;S 400,484 396,490&#10;S 391,495 386,500&#10;S 381,505 375,509&#10;S 370,514 363,517&#10;S 356,522 347,525&#10;S 337,528 327,531&#10;S 317,533 307,534&#10;S 297,535 287,536&#10;S 277,536 267,535&#10;S 257,533 247,531&#10;S 237,528 229,524&#10;S 221,521 215,517&#10;S 209,513 203,509&#10;S 198,504 193,499&#10;S 188,494 184,488&#10;S 180,482 175,476&#10;S 171,469 167,463&#10;S 164,455 160,446&#10;S 156,436 153,428&#10;S 151,418 148,408&#10;S 145,398 142,390&#10;S 137,385 129,381&#10;S 121,378 120,368&#10;S 118,358 118,348&#10;S 119,339 124,334&#10;S 131,331 137,327&#10;S 147,324 157,322&#10;S 167,320 166,314&#10;S 162,308 158,302&#10;S 154,296 150,287&#10;S 143,284 134,281&#10;S 124,281 122,282&#10;" fill="none" marker-end="url(#id2)" marker-start="url(#id2)" stroke="#000" stroke-width="3" /><path d="M 169,193 169,193 &#10;S 167,203 169,213&#10;S 172,221 177,226&#10;S 182,231 188,235&#10;S 195,238 205,242&#10;S 210,234 213,224&#10;S 216,214 220,204&#10;S 224,194 227,185&#10;S 230,178 234,172&#10;S 238,166 242,160&#10;S 247,155 251,149&#10;S 257,145 259,155&#10;S 262,165 265,172&#10;S 269,178 273,184&#10;S 277,190 281,196&#10;S 285,202 290,207&#10;S 295,212 300,217&#10;S 305,222 310,227&#10;S 316,231 321,236&#10;S 327,240 333,244&#10;S 339,248 345,252&#10;S 352,255 359,258&#10;S 367,262 377,265&#10;S 387,268 397,270&#10;S 407,271 417,273&#10;S 427,274 437,275&#10;S 447,276 457,276&#10;S 467,276 477,276&#10;S 487,276 497,275&#10;S 505,272 507,262&#10;S 506,253 496,253&#10;S 486,253 476,251&#10;S 466,249 459,245&#10;S 453,241 447,236&#10;S 440,239 433,242&#10;S 423,246 413,249&#10;S 403,251 393,253&#10;S 383,254 373,254&#10;S 363,252 353,249&#10;S 345,246 340,244&#10;" fill="none" marker-end="url(#id2)" marker-start="url(#id2)" stroke="#000" stroke-width="3" /><path d="M 374,217 374,217 &#10;S 364,217 354,217&#10;S 344,215 337,211&#10;S 331,207 325,203&#10;S 320,198 316,192&#10;S 311,187 307,181&#10;S 304,174 300,168&#10;S 297,158 305,158&#10;S 309,164 313,170&#10;S 317,176 322,181&#10;S 327,186 332,191&#10;S 337,196 343,200&#10;S 349,204 355,208&#10;S 362,211 371,214&#10;S 375,215 375,215 &#10;" fill="none" marker-end="url(#id2)" marker-start="url(#id2)" stroke="#000" stroke-width="3" /><path d="M 242,177 242,177 &#10;S 239,187 237,197&#10;S 235,207 235,217&#10;S 235,227 236,237&#10;S 243,237 248,238&#10;" fill="none" marker-end="url(#id2)" marker-start="url(#id2)" stroke="#000" stroke-width="3" /><path d="M 244,177 244,177 &#10;S 249,182 253,188&#10;S 258,193 262,199&#10;S 266,205 270,211&#10;S 268,221 267,231&#10;S 265,241 262,249&#10;S 263,259 263,269&#10;S 255,271 245,270&#10;S 241,262 238,252&#10;S 238,243 245,240&#10;S 246,239 246,239 &#10;" fill="none" marker-end="url(#id2)" marker-start="url(#id2)" stroke="#000" stroke-width="3" /><path d="M 435,189 435,189 &#10;S 431,195 427,201&#10;S 428,206 434,212&#10;S 437,221 439,227&#10;S 430,228 420,228&#10;S 410,227 401,227&#10;S 395,231 389,235&#10;S 382,238 374,242&#10;S 364,244 354,245&#10;S 344,243 341,242&#10;" fill="none" marker-end="url(#id2)" marker-start="url(#id2)" stroke="#000" stroke-width="3" /><path d="M 167,193 167,193 &#10;S 163,199 160,206&#10;S 157,215 156,225&#10;S 157,235 161,241&#10;S 167,246 176,249&#10;S 186,252 196,253&#10;S 205,255 205,265&#10;S 198,270 188,270&#10;S 180,268 170,267&#10;S 160,269 156,263&#10;S 155,253 152,245&#10;S 152,244 152,244 &#10;" fill="none" marker-end="url(#id2)" marker-start="url(#id2)" stroke="#000" stroke-width="3" /><path d="M 493,200 493,200 &#10;S 498,207 501,215&#10;S 504,225 505,235&#10;S 499,239 489,235&#10;S 482,232 476,228&#10;S 470,224 464,220&#10;S 459,215 457,210&#10;S 467,209 477,207&#10;S 487,204 493,201&#10;" fill="none" marker-end="url(#id2)" marker-start="url(#id2)" stroke="#000" stroke-width="3" /><path d="M 277,222 277,222 &#10;S 280,229 284,235&#10;S 288,241 292,247&#10;S 296,253 301,258&#10;S 305,264 309,270&#10;S 314,274 314,274 &#10;" fill="none" marker-end="url(#id2)" marker-start="url(#id2)" stroke="#000" stroke-width="3" /><path d="M 275,223 275,223 &#10;S 275,233 277,243&#10;S 280,251 285,256&#10;S 290,261 296,265&#10;S 302,269 308,273&#10;S 312,275 312,275 &#10;" fill="none" marker-end="url(#id2)" marker-start="url(#id2)" stroke="#000" stroke-width="3" /><path d="M 536,236 536,236 &#10;S 529,234 525,239&#10;S 535,238 536,238&#10;" fill="none" marker-end="url(#id2)" marker-start="url(#id2)" stroke="#000" stroke-width="3" /><path d="M 626,335 626,335 &#10;S 627,326 627,316&#10;S 626,306 623,296&#10;S 620,286 617,279&#10;S 613,273 608,268&#10;S 603,263 598,258&#10;S 592,254 586,250&#10;S 578,247 568,243&#10;S 558,241 548,238&#10;S 539,239 533,243&#10;S 527,247 528,257&#10;S 528,267 534,270&#10;S 544,269 554,267&#10;S 564,267 560,272&#10;S 550,275 540,279&#10;S 530,282 522,286&#10;S 519,292 528,294&#10;S 538,293 548,292&#10;S 558,291 568,288&#10;S 578,286 588,283&#10;S 595,286 601,290&#10;S 606,295 610,301&#10;S 614,307 618,313&#10;S 621,321 624,331&#10;S 624,335 624,335 &#10;" fill="none" marker-end="url(#id2)" marker-start="url(#id2)" stroke="#000" stroke-width="3" /><path d="M 151,246 151,246 &#10;S 148,252 145,260&#10;S 146,270 138,274&#10;S 128,277 121,279&#10;" fill="none" marker-end="url(#id2)" marker-start="url(#id2)" stroke="#000" stroke-width="3" /><path d="M 342,256 342,256 &#10;S 342,259 341,258&#10;" fill="none" marker-end="url(#id2)" marker-start="url(#id2)" stroke="#000" stroke-width="3" /><path d="M 346,259 346,259 &#10;S 352,263 358,267&#10;S 365,270 371,274&#10;S 378,277 387,281&#10;S 397,284 406,286&#10;S 416,290 426,292&#10;S 436,293 446,294&#10;S 456,294 466,293&#10;S 476,292 486,291&#10;S 496,290 496,295&#10;S 492,301 487,306&#10;S 482,311 475,314&#10;S 469,318 459,321&#10;S 452,322 452,322 &#10;" fill="none" marker-end="url(#id2)" marker-start="url(#id2)" stroke="#000" stroke-width="3" /><path d="M 344,261 344,261 &#10;S 350,266 356,270&#10;S 361,275 367,279&#10;S 373,283 382,285&#10;S 392,286 402,288&#10;S 409,291 415,295&#10;S 419,301 421,310&#10;S 427,315 436,319&#10;S 446,323 456,326&#10;S 466,328 476,330&#10;S 486,331 496,331&#10;S 495,332 495,332 &#10;" fill="none" marker-end="url(#id2)" marker-start="url(#id2)" stroke="#000" stroke-width="3" /><path d="M 720,267 720,267 &#10;S 720,270 720,269&#10;" fill="none" marker-end="url(#id2)" marker-start="url(#id2)" stroke="#000" stroke-width="3" /><path d="M 197,291 197,291 &#10;S 187,291 177,291&#10;S 177,294 187,296&#10;S 197,298 207,301&#10;S 209,309 199,311&#10;S 189,314 181,313&#10;S 176,308 171,303&#10;S 167,297 164,290&#10;S 167,286 177,287&#10;S 187,288 196,289&#10;S 197,289 197,289 &#10;" fill="none" marker-end="url(#id2)" marker-start="url(#id2)" stroke="#000" stroke-width="3" /><path d="M 705,306 705,306 &#10;S 709,300 713,294&#10;S 718,289 728,289&#10;S 735,293 738,303&#10;S 741,313 733,314&#10;S 723,312 713,310&#10;S 704,307 703,306&#10;" fill="none" marker-end="url(#id2)" marker-start="url(#id2)" stroke="#000" stroke-width="3" /><path d="M 675,301 675,301 &#10;S 676,304 674,302&#10;" fill="none" marker-end="url(#id2)" marker-start="url(#id2)" stroke="#000" stroke-width="3" /><path d="M 219,303 219,303 &#10;S 220,306 219,304&#10;" fill="none" marker-end="url(#id2)" marker-start="url(#id2)" stroke="#000" stroke-width="3" /><path d="M 455,323 455,323 &#10;S 465,323 475,321&#10;S 485,318 493,315&#10;S 498,320 503,325&#10;S 502,328 502,328 &#10;" fill="none" marker-end="url(#id2)" marker-start="url(#id2)" stroke="#000" stroke-width="3" /><path d="M 647,319 647,319 &#10;S 642,318 647,317&#10;" fill="none" marker-end="url(#id2)" marker-start="url(#id2)" stroke="#000" stroke-width="3" /><path d="M 286,318 286,318 &#10;S 296,319 306,320&#10;S 316,322 326,324&#10;S 331,329 337,333&#10;S 342,338 347,343&#10;S 352,348 357,353&#10;S 362,358 368,356&#10;S 371,353 369,345&#10;S 376,346 382,351&#10;S 386,357 390,363&#10;S 395,368 399,374&#10;S 403,381 405,391&#10;S 406,401 406,411&#10;S 405,421 404,431&#10;S 402,441 399,450&#10;S 395,460 391,469&#10;S 387,476 383,482&#10;S 378,487 372,492&#10;S 365,496 359,500&#10;S 353,504 345,508&#10;S 336,512 326,515&#10;S 316,518 306,520&#10;S 296,521 286,521&#10;S 276,520 266,518&#10;S 256,515 246,511&#10;S 237,507 230,503&#10;S 223,499 217,495&#10;S 211,491 206,486&#10;S 201,481 197,475&#10;S 193,469 189,463&#10;S 185,456 181,447&#10;S 178,437 175,427&#10;S 173,417 172,407&#10;S 172,397 176,391&#10;S 178,390 178,390 &#10;" fill="none" marker-end="url(#id2)" marker-start="url(#id2)" stroke="#000" stroke-width="3" /><path d="M 286,320 286,320 &#10;S 290,326 294,332&#10;S 298,338 289,337&#10;S 279,334 271,330&#10;S 264,327 258,323&#10;S 249,322 239,325&#10;S 233,329 230,333&#10;S 238,335 229,337&#10;S 220,339 214,343&#10;S 209,348 203,352&#10;S 206,346 211,341&#10;S 209,338 202,341&#10;S 196,345 191,350&#10;S 185,354 180,359&#10;S 176,366 173,374&#10;S 172,384 177,388&#10;" fill="none" marker-end="url(#id2)" marker-start="url(#id2)" stroke="#000" stroke-width="3" /><path d="M 644,323 644,323 &#10;S 654,324 664,323&#10;S 674,322 684,324&#10;S 694,328 702,332&#10;S 709,335 716,339&#10;S 722,343 728,347&#10;S 733,352 738,358&#10;S 740,364 735,369&#10;S 727,365 717,364&#10;S 707,363 697,362&#10;S 687,361 677,361&#10;S 667,361 657,361&#10;S 647,361 637,362&#10;S 627,362 621,360&#10;S 626,355 630,349&#10;S 633,342 637,335&#10;S 647,337 654,340&#10;S 664,344 674,348&#10;S 683,351 691,355&#10;S 697,354 690,351&#10;S 684,347 678,343&#10;S 672,339 666,335&#10;S 658,332 652,328&#10;S 645,325 644,325&#10;" fill="none" marker-end="url(#id2)" marker-start="url(#id2)" stroke="#000" stroke-width="3" /><path d="M 504,328 504,328 &#10;S 513,330 511,340&#10;S 507,346 497,343&#10;S 487,340 477,339&#10;S 467,339 464,339&#10;" fill="none" marker-end="url(#id2)" marker-start="url(#id2)" stroke="#000" stroke-width="3" /><path d="M 738,378 738,378 &#10;S 744,372 749,380&#10;S 749,390 749,400&#10;S 748,410 747,420&#10;S 745,430 742,440&#10;S 738,449 735,457&#10;S 731,463 727,470&#10;S 723,476 718,481&#10;S 714,487 708,491&#10;S 703,496 697,500&#10;S 690,503 684,507&#10;S 677,510 668,514&#10;S 658,517 648,520&#10;S 638,521 628,521&#10;S 618,520 608,519&#10;S 598,516 588,513&#10;S 578,510 570,506&#10;S 563,503 557,499&#10;S 551,495 545,490&#10;S 540,485 535,480&#10;S 531,474 527,467&#10;S 523,458 520,448&#10;S 517,438 516,428&#10;S 515,418 515,408&#10;S 515,398 516,388&#10;S 518,379 522,373&#10;S 527,367 531,361&#10;S 535,355 540,350&#10;S 545,345 551,341&#10;S 558,338 565,334&#10;S 568,335 561,339&#10;S 556,344 551,349&#10;S 546,355 549,356&#10;S 554,351 560,347&#10;S 565,342 570,337&#10;S 576,333 585,330&#10;S 595,328 605,329&#10;S 615,330 616,339&#10;S 614,349 611,359&#10;S 605,364 595,364&#10;S 585,365 575,365&#10;S 565,366 555,366&#10;S 546,368 547,378&#10;S 556,380 558,384&#10;S 554,390 550,397&#10;S 548,406 555,407&#10;S 560,402 566,398&#10;S 572,394 577,389&#10;S 583,385 586,394&#10;S 588,404 592,414&#10;S 596,420 602,424&#10;S 610,428 620,429&#10;S 630,426 637,423&#10;S 642,418 647,413&#10;S 650,406 654,400&#10;S 657,391 661,384&#10;S 671,384 681,383&#10;S 688,386 689,391&#10;S 684,396 680,402&#10;S 675,407 670,412&#10;S 666,418 662,424&#10;S 668,428 674,424&#10;S 680,420 685,415&#10;S 690,410 694,404&#10;S 699,399 704,394&#10;S 709,389 714,384&#10;S 719,379 724,374&#10;S 732,372 737,375&#10;S 736,376 736,376 &#10;" fill="none" marker-end="url(#id2)" marker-start="url(#id2)" stroke="#000" stroke-width="3" /><path d="M 464,336 464,336 &#10;S 474,336 484,335&#10;S 494,334 497,334&#10;" fill="none" marker-end="url(#id2)" marker-start="url(#id2)" stroke="#000" stroke-width="3" /><path d="M 450,339 450,339 &#10;S 440,340 430,341&#10;S 421,344 418,336&#10;S 428,337 438,337&#10;S 448,337 449,337&#10;" fill="none" marker-end="url(#id2)" marker-start="url(#id2)" stroke="#000" stroke-width="3" /><path d="M 293,426 293,426 &#10;S 284,424 278,420&#10;S 273,415 269,409&#10;S 265,403 262,394&#10;S 261,384 251,384&#10;S 241,385 232,386&#10;S 235,394 239,400&#10;S 243,406 247,412&#10;S 251,419 247,423&#10;S 241,419 235,415&#10;S 229,411 224,406&#10;S 219,401 214,396&#10;S 208,392 203,387&#10;S 198,382 194,376&#10;S 189,371 184,366&#10;S 192,363 202,364&#10;S 212,364 222,364&#10;S 232,363 242,362&#10;S 252,361 262,361&#10;S 272,361 282,362&#10;S 292,362 302,363&#10;S 312,363 322,364&#10;S 332,365 342,365&#10;S 352,366 362,366&#10;S 369,370 368,379&#10;S 367,384 371,390&#10;S 375,396 379,402&#10;S 376,409 371,411&#10;S 367,405 362,400&#10;S 356,396 350,392&#10;S 344,388 338,392&#10;S 335,402 331,408&#10;S 326,413 321,418&#10;S 314,422 306,425&#10;S 301,426 301,426 &#10;" fill="none" marker-end="url(#id2)" marker-start="url(#id2)" stroke="#000" stroke-width="3" /><path d="M 276,385 276,385 &#10;S 286,388 292,392&#10;S 291,401 285,405&#10;S 277,404 270,401&#10;S 267,393 272,387&#10;S 275,386 275,386 &#10;" fill="none" marker-end="url(#id2)" marker-start="url(#id2)" stroke="#000" stroke-width="3" /><path d="M 602,389 602,389 &#10;S 612,391 617,396&#10;S 616,405 609,409&#10;S 600,407 596,400&#10;S 599,391 601,390&#10;" fill="none" marker-end="url(#id2)" marker-start="url(#id2)" stroke="#000" stroke-width="3" /><path d="M 296,405 296,405 &#10;S 304,407 303,415&#10;S 295,417 293,409&#10;S 296,406 296,406 &#10;" fill="none" marker-end="url(#id2)" marker-start="url(#id2)" stroke="#000" stroke-width="3" /><path d="M 619,411 619,411 &#10;S 626,414 623,421&#10;S 617,417 619,412&#10;" fill="none" marker-end="url(#id2)" marker-start="url(#id2)" stroke="#000" stroke-width="3" /><path d="M 343,421 343,421 &#10;S 352,419 353,424&#10;S 343,424 341,421&#10;" fill="none" marker-end="url(#id2)" marker-start="url(#id2)" stroke="#000" stroke-width="3" /><path d="M 273,428 273,428 &#10;S 280,426 290,428&#10;S 292,428 292,428 &#10;" fill="none" marker-end="url(#id2)" marker-start="url(#id2)" stroke="#000" stroke-width="3" /><path d="M 302,428 302,428 &#10;S 311,426 321,425&#10;S 316,430 306,432&#10;S 296,433 286,432&#10;S 277,429 275,428&#10;" fill="none" marker-end="url(#id2)" marker-start="url(#id2)" stroke="#000" stroke-width="3" /><path d="M 702,533 702,533 &#10;S 697,540 703,545&#10;S 708,540 703,534&#10;" fill="none" marker-end="url(#id2)" marker-start="url(#id2)" stroke="#000" stroke-width="3" /><path d="M 446,566 446,566 &#10;S 454,568 463,572&#10;S 459,574 450,571&#10;S 446,567 446,567 &#10;" fill="none" marker-end="url(#id2)" marker-start="url(#id2)" stroke="#000" stroke-width="3" /><path d="M 407,595 407,595 &#10;S 417,595 426,598&#10;S 432,602 438,606&#10;S 443,611 450,615&#10;S 460,617 470,616&#10;S 477,612 482,607&#10;S 488,603 494,599&#10;S 504,597 514,597&#10;S 515,604 511,609&#10;S 507,616 502,621&#10;S 496,625 490,629&#10;S 484,633 477,636&#10;S 470,639 462,638&#10;S 453,638 446,634&#10;S 441,629 434,626&#10;S 427,623 421,619&#10;S 414,616 405,612&#10;S 401,605 400,598&#10;S 406,596 406,596 &#10;" fill="none" marker-end="url(#id2)" marker-start="url(#id2)" stroke="#000" stroke-width="3" /><path d="M 221,636 221,636 &#10;S 222,641 221,637&#10;" fill="none" marker-end="url(#id2)" marker-start="url(#id2)" stroke="#000" stroke-width="3" /><path d="M 677,638 677,638 &#10;S 681,645 677,652&#10;S 676,643 677,639&#10;" fill="none" marker-end="url(#id2)" marker-start="url(#id2)" stroke="#000" stroke-width="3" /><path d="M 213,643 213,643 &#10;S 213,645 213,644&#10;" fill="none" marker-end="url(#id2)" marker-start="url(#id2)" stroke="#000" stroke-width="3" /><path d="M 457,655 457,655 &#10;S 449,652 453,647&#10;S 458,652 459,654&#10;" fill="none" marker-end="url(#id2)" marker-start="url(#id2)" stroke="#000" stroke-width="3" /><path d="M 249,651 249,651 &#10;S 252,658 250,668&#10;S 247,677 243,675&#10;S 244,665 247,655&#10;S 249,652 249,652 &#10;" fill="none" marker-end="url(#id2)" marker-start="url(#id2)" stroke="#000" stroke-width="3" /><path d="M 459,671 459,671 &#10;S 454,677 456,680&#10;S 456,679 456,679 &#10;" fill="none" marker-end="url(#id2)" marker-start="url(#id2)" stroke="#000" stroke-width="3" /><path d="M 461,672 461,672 &#10;S 463,681 458,683&#10;S 459,677 459,677 &#10;" fill="none" marker-end="url(#id2)" marker-start="url(#id2)" stroke="#000" stroke-width="3" /><path d="M 653,673 653,673 &#10;S 658,679 656,688&#10;S 651,684 652,674&#10;S 653,674 653,674 &#10;" fill="none" marker-end="url(#id2)" marker-start="url(#id2)" stroke="#000" stroke-width="3" /><path d="M 545,678 545,678 &#10;S 550,683 553,690&#10;S 550,696 545,691&#10;S 543,681 544,679&#10;" fill="none" marker-end="url(#id2)" marker-start="url(#id2)" stroke="#000" stroke-width="3" /><path d="M 510,681 510,681 &#10;S 514,687 510,686&#10;S 510,682 510,682 &#10;" fill="none" marker-end="url(#id2)" marker-start="url(#id2)" stroke="#000" stroke-width="3" /><path d="M 359,686 359,686 &#10;S 355,692 352,701&#10;S 356,703 360,697&#10;S 362,687 361,686&#10;" fill="none" marker-end="url(#id2)" marker-start="url(#id2)" stroke="#000" stroke-width="3" /><path d="M 572,687 572,687 &#10;S 576,693 580,700&#10;S 577,705 574,698&#10;S 570,689 570,688&#10;" fill="none" marker-end="url(#id2)" marker-start="url(#id2)" stroke="#000" stroke-width="3" /><path d="M 374,691 374,691 &#10;S 375,699 370,705&#10;S 371,697 374,692&#10;" fill="none" marker-end="url(#id2)" marker-start="url(#id2)" stroke="#000" stroke-width="3" /><path d="M 476,691 476,691 &#10;S 486,692 496,695&#10;S 506,698 515,702&#10;S 525,706 535,710&#10;S 545,714 555,717&#10;S 565,721 575,724&#10;S 585,728 595,730&#10;S 602,734 600,742&#10;S 591,743 581,743&#10;S 571,743 561,742&#10;S 551,740 541,738&#10;S 531,736 521,733&#10;S 511,730 501,728&#10;S 491,729 481,729&#10;S 471,731 461,732&#10;S 451,731 441,727&#10;S 431,725 421,727&#10;S 411,730 401,732&#10;S 391,734 381,736&#10;S 371,738 361,740&#10;S 351,741 341,741&#10;S 331,742 323,744&#10;S 322,736 326,730&#10;S 336,729 346,727&#10;S 356,723 365,719&#10;S 373,716 382,712&#10;S 391,709 397,705&#10;S 404,702 410,698&#10;S 418,695 428,693&#10;S 438,692 448,693&#10;S 458,695 468,694&#10;S 475,692 475,692 &#10;" fill="none" marker-end="url(#id2)" marker-start="url(#id2)" stroke="#000" stroke-width="3" /><path d="M 568,696 568,696 &#10;S 571,704 572,707&#10;" fill="none" marker-end="url(#id2)" marker-start="url(#id2)" stroke="#000" stroke-width="3" /><path d="M 258,709 258,709 &#10;S 261,716 257,712&#10;S 258,710 258,710 &#10;" fill="none" marker-end="url(#id2)" marker-start="url(#id2)" stroke="#000" stroke-width="3" /><path d="M 452,801 452,801 &#10;S 462,802 472,802&#10;S 481,803 479,811&#10;S 469,813 459,813&#10;S 450,811 448,804&#10;S 451,802 451,802 &#10;" fill="none" marker-end="url(#id2)" marker-start="url(#id2)" stroke="#000" stroke-width="3" /><path d="M 453,825 453,825 &#10;S 458,830 457,839&#10;S 452,836 452,826&#10;S 453,826 453,826 &#10;" fill="none" marker-end="url(#id2)" marker-start="url(#id2)" stroke="#000" stroke-width="3" /><path d="M 468,826 468,826 &#10;S 466,830 467,827&#10;" fill="none" marker-end="url(#id2)" marker-start="url(#id2)" stroke="#000" stroke-width="3" /></svg>