<?xml version="1.0" encoding="utf-8" ?>
<svg baseProfile="full" height="531px" version="1.1" width="267px" xmlns="http://www.w3.org/2000/svg" xmlns:ev="http://www.w3.org/2001/xml-events" xmlns:xlink="http://www.w3.org/1999/xlink"><defs><marker id="id122" markerHeight="4" markerWidth="4" orient="auto" refX="1" refY="1"><circle cx="1" cy="1" fill="black" r="0.5" /></marker></defs><path d="M 105,22 105,22 &#10;S 123,20 141,20&#10;S 147,24 144,23&#10;" fill="none" marker-end="url(#id122)" marker-start="url(#id122)" stroke="#000" stroke-width="3" /><path d="M 106,50 106,50 &#10;S 107,33 113,31&#10;S 110,35 110,35 &#10;" fill="none" marker-end="url(#id122)" marker-start="url(#id122)" stroke="#000" stroke-width="3" /><path d="M 152,34 152,34 &#10;S 152,50 152,51&#10;" fill="none" marker-end="url(#id122)" marker-start="url(#id122)" stroke="#000" stroke-width="3" /><path d="M 123,42 123,42 &#10;S 136,44 129,45&#10;" fill="none" marker-end="url(#id122)" marker-start="url(#id122)" stroke="#000" stroke-width="3" /><path d="M 80,492 80,492 &#10;S 72,483 67,467&#10;S 67,449 68,431&#10;S 68,413 67,395&#10;S 67,377 67,359&#10;S 68,341 68,323&#10;S 68,305 68,287&#10;S 68,269 68,251&#10;S 68,233 69,215&#10;S 74,198 80,186&#10;S 88,176 95,165&#10;S 102,153 105,135&#10;S 105,117 106,99&#10;S 106,81 107,63&#10;S 111,51 129,50&#10;S 147,50 153,61&#10;S 153,79 154,97&#10;S 155,115 155,133&#10;S 158,151 166,165&#10;S 172,175 181,186&#10;S 187,198 192,215&#10;S 193,233 193,251&#10;S 193,269 193,287&#10;S 193,305 193,323&#10;S 193,341 193,359&#10;S 193,377 193,395&#10;S 193,413 193,431&#10;S 193,449 192,467&#10;S 187,482 178,492&#10;S 165,497 165,497 &#10;" fill="none" marker-end="url(#id122)" marker-start="url(#id122)" stroke="#000" stroke-width="3" /><path d="M 146,51 146,51 &#10;S 130,53 115,55&#10;" fill="none" marker-end="url(#id122)" marker-start="url(#id122)" stroke="#000" stroke-width="3" /><path d="M 146,54 146,54 &#10;S 138,58 120,58&#10;S 110,58 110,58 &#10;" fill="none" marker-end="url(#id122)" marker-start="url(#id122)" stroke="#000" stroke-width="3" /><path d="M 113,63 113,63 &#10;S 123,61 141,61&#10;S 150,69 150,87&#10;S 151,105 151,121&#10;" fill="none" marker-end="url(#id122)" marker-start="url(#id122)" stroke="#000" stroke-width="3" /><path d="M 151,129 151,129 &#10;S 153,147 145,156&#10;S 143,157 143,157 &#10;" fill="none" marker-end="url(#id122)" marker-start="url(#id122)" stroke="#000" stroke-width="3" /><path d="M 110,139 110,139 &#10;S 112,156 106,171&#10;S 103,174 103,174 &#10;" fill="none" marker-end="url(#id122)" marker-start="url(#id122)" stroke="#000" stroke-width="3" /><path d="M 151,156 151,156 &#10;S 157,171 159,173&#10;" fill="none" marker-end="url(#id122)" marker-start="url(#id122)" stroke="#000" stroke-width="3" /><path d="M 101,168 101,168 &#10;S 92,177 84,187&#10;S 76,201 72,219&#10;S 72,237 71,255&#10;S 71,273 71,283&#10;" fill="none" marker-end="url(#id122)" marker-start="url(#id122)" stroke="#000" stroke-width="3" /><path d="M 169,176 169,176 &#10;S 178,187 184,199&#10;S 189,217 189,235&#10;S 189,253 189,271&#10;S 190,289 190,307&#10;S 190,325 190,343&#10;S 190,361 190,379&#10;S 189,381 189,381 &#10;" fill="none" marker-end="url(#id122)" marker-start="url(#id122)" stroke="#000" stroke-width="3" /><path d="M 189,466 189,466 &#10;S 184,480 182,483&#10;" fill="none" marker-end="url(#id122)" marker-start="url(#id122)" stroke="#000" stroke-width="3" /><path d="M 183,485 183,485 &#10;S 168,492 150,494&#10;S 132,495 114,495&#10;S 96,493 84,486&#10;" fill="none" marker-end="url(#id122)" marker-start="url(#id122)" stroke="#000" stroke-width="3" /><path d="M 86,494 86,494 &#10;S 104,497 111,499&#10;" fill="none" marker-end="url(#id122)" marker-start="url(#id122)" stroke="#000" stroke-width="3" /><path d="M 113,499 113,499 &#10;S 131,499 147,498&#10;S 163,497 163,497 &#10;" fill="none" marker-end="url(#id122)" marker-start="url(#id122)" stroke="#000" stroke-width="3" /></svg>