<?xml version="1.0" encoding="utf-8" ?>
<svg baseProfile="full" height="512px" version="1.1" width="507px" xmlns="http://www.w3.org/2000/svg" xmlns:ev="http://www.w3.org/2001/xml-events" xmlns:xlink="http://www.w3.org/1999/xlink"><defs /><path d="M 206,76 206,76 &#10;S 202,84 199,94&#10;S 197,104 194,114&#10;S 192,124 189,134&#10;S 187,144 186,154&#10;S 183,164 181,174&#10;S 178,183 175,192&#10;S 172,202 172,211&#10;S 179,214 183,223&#10;S 184,225 184,225 &#10;" fill="none" filter="url(#pencil)" stroke="#000" stroke-width="4" /><path d="M 212,76 212,76 &#10;S 209,82 209,83&#10;" fill="none" filter="url(#pencil)" stroke="#000" stroke-width="4" /><path d="M 212,78 212,78 &#10;S 215,87 219,97&#10;S 222,107 224,117&#10;S 227,127 230,137&#10;S 232,147 235,157&#10;S 237,167 241,176&#10;S 245,186 248,194&#10;S 251,204 254,214&#10;S 254,224 254,234&#10;S 255,244 259,238&#10;S 262,231 265,224&#10;S 270,222 273,231&#10;S 276,239 276,249&#10;S 277,259 275,269&#10;S 271,275 267,281&#10;S 260,285 259,288&#10;" fill="none" filter="url(#pencil)" stroke="#000" stroke-width="4" /><path d="M 312,81 312,81 &#10;S 306,87 303,97&#10;S 300,107 297,117&#10;S 294,127 292,137&#10;S 289,147 286,157&#10;S 283,167 280,176&#10;S 277,186 273,196&#10;S 270,204 267,212&#10;S 267,219 267,219 &#10;" fill="none" filter="url(#pencil)" stroke="#000" stroke-width="4" /><path d="M 312,83 312,83 &#10;S 316,92 318,102&#10;S 321,112 323,122&#10;S 326,132 328,141&#10;S 330,150 332,160&#10;S 334,170 337,180&#10;S 340,190 343,199&#10;S 345,209 349,216&#10;S 352,209 359,212&#10;S 361,222 362,232&#10;S 364,242 365,252&#10;S 366,262 366,272&#10;S 367,279 367,279 &#10;" fill="none" filter="url(#pencil)" stroke="#000" stroke-width="4" /><path d="M 506,116 506,116 &#10;S 502,121 498,129&#10;S 495,136 492,143&#10;S 489,153 485,163&#10;S 481,173 477,183&#10;S 474,191 470,201&#10;S 467,208 463,217&#10;S 460,225 457,233&#10;S 455,243 453,253&#10;S 452,263 451,273&#10;S 450,283 449,293&#10;S 449,303 448,313&#10;S 447,323 445,333&#10;S 444,343 444,353&#10;S 443,363 442,373&#10;S 440,383 438,393&#10;S 437,403 434,413&#10;S 432,422 428,431&#10;S 427,433 427,433 &#10;" fill="none" filter="url(#pencil)" stroke="#000" stroke-width="4" /><path d="M 321,130 321,130 &#10;S 317,137 313,144&#10;S 305,147 298,148&#10;S 293,143 293,143 &#10;" fill="none" filter="url(#pencil)" stroke="#000" stroke-width="4" /><path d="M 52,186 52,186 &#10;S 46,183 44,176&#10;S 45,166 47,156&#10;S 50,146 55,140&#10;S 60,146 64,152&#10;S 67,160 70,168&#10;S 73,178 78,188&#10;S 81,198 85,207&#10;S 89,216 92,224&#10;S 95,231 99,238&#10;S 103,245 106,252&#10;S 110,260 111,270&#10;S 112,280 112,290&#10;S 113,300 114,310&#10;S 115,320 116,330&#10;S 117,340 118,350&#10;S 119,360 120,370&#10;S 121,380 122,390&#10;S 123,400 124,410&#10;S 125,420 126,430&#10;S 127,440 128,450&#10;S 129,460 129,470&#10;S 130,480 131,490&#10;S 132,499 131,509&#10;S 131,511 131,511 &#10;" fill="none" filter="url(#pencil)" stroke="#000" stroke-width="4" /><path d="M 490,157 490,157 &#10;S 496,161 502,164&#10;S 505,160 505,160 &#10;" fill="none" filter="url(#pencil)" stroke="#000" stroke-width="4" /><path d="M 369,277 369,277 &#10;S 371,269 375,261&#10;S 378,252 382,243&#10;S 385,233 389,223&#10;S 391,213 395,203&#10;S 398,193 402,183&#10;S 406,174 409,165&#10;S 415,167 417,177&#10;S 419,187 421,197&#10;S 423,207 424,217&#10;S 425,227 427,237&#10;S 429,247 431,257&#10;S 433,267 435,277&#10;S 438,287 441,297&#10;S 440,307 439,317&#10;S 439,327 438,337&#10;S 437,347 436,357&#10;S 435,367 434,377&#10;S 434,387 433,397&#10;S 434,403 434,403 &#10;" fill="none" filter="url(#pencil)" stroke="#000" stroke-width="4" /><path d="M 0,177 0,177 &#10;S 5,182 8,189&#10;S 11,196 15,204&#10;S 19,213 23,222&#10;S 26,231 30,239&#10;S 32,247 33,248&#10;" fill="none" filter="url(#pencil)" stroke="#000" stroke-width="4" /><path d="M 1,180 1,180 &#10;S 2,190 2,200&#10;S 2,210 1,220&#10;S 4,227 9,221&#10;S 14,215 16,214&#10;" fill="none" filter="url(#pencil)" stroke="#000" stroke-width="4" /><path d="M 32,240 32,240 &#10;S 35,231 37,221&#10;S 39,211 40,201&#10;S 41,191 45,184&#10;" fill="none" filter="url(#pencil)" stroke="#000" stroke-width="4" /><path d="M 418,202 418,202 &#10;S 409,205 401,206&#10;S 396,211 395,210&#10;" fill="none" filter="url(#pencil)" stroke="#000" stroke-width="4" /><path d="M 506,236 506,236 &#10;S 503,229 501,220&#10;S 501,211 505,205&#10;S 506,204 506,204 &#10;" fill="none" filter="url(#pencil)" stroke="#000" stroke-width="4" /><path d="M 169,213 169,213 &#10;S 169,223 169,233&#10;S 170,243 170,253&#10;S 170,263 171,273&#10;S 171,283 171,293&#10;S 170,302 166,310&#10;S 163,318 159,326&#10;S 156,333 152,340&#10;S 148,347 145,355&#10;S 144,364 143,374&#10;S 142,384 141,394&#10;S 140,404 140,414&#10;S 139,424 138,434&#10;S 137,444 136,454&#10;S 135,464 134,474&#10;S 134,484 133,489&#10;" fill="none" filter="url(#pencil)" stroke="#000" stroke-width="4" /><path d="M 345,222 345,222 &#10;S 341,231 338,238&#10;S 339,248 341,258&#10;S 342,268 343,278&#10;S 344,287 343,297&#10;S 340,305 334,310&#10;S 327,306 323,300&#10;S 319,292 315,286&#10;S 316,276 316,266&#10;S 315,260 312,269&#10;S 308,278 305,288&#10;S 301,298 297,306&#10;S 294,314 290,321&#10;S 287,328 283,335&#10;S 280,342 276,349&#10;S 273,357 271,367&#10;S 270,369 270,369 &#10;" fill="none" filter="url(#pencil)" stroke="#000" stroke-width="4" /><path d="M 494,223 494,223 &#10;S 490,231 487,239&#10;S 484,246 480,254&#10;S 476,262 472,268&#10;S 468,276 465,283&#10;S 461,289 458,296&#10;S 455,305 453,315&#10;S 453,324 463,325&#10;S 470,328 474,335&#10;S 477,343 481,350&#10;S 489,347 494,342&#10;S 500,338 506,337&#10;" fill="none" filter="url(#pencil)" stroke="#000" stroke-width="4" /><path d="M 202,230 202,230 &#10;S 206,236 208,246&#10;S 211,256 212,266&#10;S 213,276 213,286&#10;S 211,291 211,291 &#10;" fill="none" filter="url(#pencil)" stroke="#000" stroke-width="4" /><path d="M 201,232 201,232 &#10;S 198,238 194,244&#10;S 191,251 188,258&#10;S 185,265 182,273&#10;S 184,282 188,288&#10;S 195,291 203,290&#10;S 209,292 209,300&#10;" fill="none" filter="url(#pencil)" stroke="#000" stroke-width="4" /><path d="M 277,238 277,238 &#10;S 287,238 296,240&#10;S 304,244 310,248&#10;S 317,249 320,244&#10;" fill="none" filter="url(#pencil)" stroke="#000" stroke-width="4" /><path d="M 255,245 255,245 &#10;S 252,252 249,262&#10;S 245,272 247,280&#10;S 254,284 257,284&#10;" fill="none" filter="url(#pencil)" stroke="#000" stroke-width="4" /><path d="M 322,247 322,247 &#10;S 317,255 316,258&#10;" fill="none" filter="url(#pencil)" stroke="#000" stroke-width="4" /><path d="M 475,259 475,259 &#10;S 469,255 460,254&#10;S 456,254 456,254 &#10;" fill="none" filter="url(#pencil)" stroke="#000" stroke-width="4" /><path d="M 106,262 106,262 &#10;S 104,270 99,275&#10;S 96,284 93,292&#10;S 85,291 77,288&#10;S 70,286 67,288&#10;" fill="none" filter="url(#pencil)" stroke="#000" stroke-width="4" /><path d="M 279,264 279,264 &#10;S 280,274 281,284&#10;S 283,294 285,304&#10;S 288,314 289,319&#10;" fill="none" filter="url(#pencil)" stroke="#000" stroke-width="4" /><path d="M 243,268 243,268 &#10;S 241,277 237,285&#10;S 234,293 230,302&#10;S 226,311 223,318&#10;" fill="none" filter="url(#pencil)" stroke="#000" stroke-width="4" /><path d="M 43,271 43,271 &#10;S 47,279 50,287&#10;S 53,295 52,303&#10;S 49,313 47,322&#10;S 40,325 31,324&#10;S 23,327 17,331&#10;S 12,336 4,338&#10;S 2,337 2,337 &#10;" fill="none" filter="url(#pencil)" stroke="#000" stroke-width="4" /><path d="M 372,312 372,312 &#10;S 373,322 375,332&#10;S 377,342 375,351&#10;S 375,352 375,352 &#10;" fill="none" filter="url(#pencil)" stroke="#000" stroke-width="4" /><path d="M 374,313 374,313 &#10;S 380,319 383,328&#10;S 386,331 386,331 &#10;" fill="none" filter="url(#pencil)" stroke="#000" stroke-width="4" /><path d="M 392,324 392,324 &#10;S 388,331 385,340&#10;S 381,346 378,353&#10;S 373,361 370,368&#10;S 366,375 362,383&#10;S 358,391 356,400&#10;S 353,409 351,419&#10;S 350,429 348,439&#10;S 347,449 345,459&#10;S 344,469 342,479&#10;S 341,489 339,499&#10;S 338,509 338,511&#10;" fill="none" filter="url(#pencil)" stroke="#000" stroke-width="4" /><path d="M 421,326 421,326 &#10;S 423,333 425,342&#10;S 426,352 428,362&#10;S 429,372 430,382&#10;S 431,389 431,389 &#10;" fill="none" filter="url(#pencil)" stroke="#000" stroke-width="4" /><path d="M 392,329 392,329 &#10;S 395,336 401,340&#10;S 409,343 409,343 &#10;" fill="none" filter="url(#pencil)" stroke="#000" stroke-width="4" /><path d="M 347,359 347,359 &#10;S 345,366 341,373&#10;S 338,381 331,380&#10;S 322,376 316,377&#10;S 307,380 301,384&#10;S 296,382 296,382 &#10;" fill="none" filter="url(#pencil)" stroke="#000" stroke-width="4" /><path d="M 146,360 146,360 &#10;S 151,366 155,375&#10;S 157,385 164,388&#10;S 172,386 182,387&#10;S 191,390 194,394&#10;" fill="none" filter="url(#pencil)" stroke="#000" stroke-width="4" /><path d="M 238,370 238,370 &#10;S 247,370 257,368&#10;S 266,370 269,378&#10;S 267,388 266,398&#10;S 265,408 264,418&#10;S 263,428 262,438&#10;S 260,448 259,458&#10;S 258,468 257,478&#10;S 256,488 254,498&#10;S 253,508 253,511&#10;" fill="none" filter="url(#pencil)" stroke="#000" stroke-width="4" /><path d="M 310,375 310,375 &#10;S 305,373 307,372&#10;" fill="none" filter="url(#pencil)" stroke="#000" stroke-width="4" /><path d="M 285,373 285,373 &#10;S 286,381 292,386&#10;S 296,386 296,386 &#10;" fill="none" filter="url(#pencil)" stroke="#000" stroke-width="4" /><path d="M 330,377 330,377 &#10;S 337,374 333,378&#10;" fill="none" filter="url(#pencil)" stroke="#000" stroke-width="4" /><path d="M 405,403 405,403 &#10;S 404,412 403,422&#10;S 403,431 403,433&#10;" fill="none" filter="url(#pencil)" stroke="#000" stroke-width="4" /><path d="M 355,417 355,417 &#10;S 364,418 369,423&#10;S 373,429 377,435&#10;S 381,442 389,440&#10;S 396,436 399,434&#10;" fill="none" filter="url(#pencil)" stroke="#000" stroke-width="4" /><path d="M 429,434 429,434 &#10;S 426,444 424,454&#10;S 422,464 420,474&#10;S 419,484 417,494&#10;S 415,504 414,511&#10;" fill="none" filter="url(#pencil)" stroke="#000" stroke-width="4" /><path d="M 504,448 504,448 &#10;S 503,458 501,468&#10;S 499,478 496,488&#10;S 494,498 492,508&#10;S 492,511 492,511 &#10;" fill="none" filter="url(#pencil)" stroke="#000" stroke-width="4" /></svg>