<?xml version="1.0" encoding="utf-8" ?>
<svg baseProfile="full" height="531px" version="1.1" width="267px" xmlns="http://www.w3.org/2000/svg" xmlns:ev="http://www.w3.org/2001/xml-events" xmlns:xlink="http://www.w3.org/1999/xlink"><defs><marker id="id99" markerHeight="4" markerWidth="4" orient="auto" refX="1" refY="1"><circle cx="1" cy="1" fill="black" r="0.5" /></marker></defs><path d="M 108,54 108,54 &#10;S 135,50 152,61&#10;S 155,90 156,120&#10;S 159,150 170,171&#10;S 183,188 192,213&#10;S 194,243 194,273&#10;S 194,303 194,333&#10;S 194,363 194,393&#10;S 193,423 194,453&#10;S 192,479 192,479 &#10;" fill="none" marker-end="url(#id99)" marker-start="url(#id99)" stroke="#000" stroke-width="3" /><path d="M 107,55 107,55 &#10;S 106,82 106,112&#10;S 105,142 101,158&#10;" fill="none" marker-end="url(#id99)" marker-start="url(#id99)" stroke="#000" stroke-width="3" /><path d="M 79,188 79,188 &#10;S 70,212 68,242&#10;S 68,272 68,302&#10;S 68,332 68,362&#10;S 68,392 68,422&#10;S 68,452 71,482&#10;S 89,496 119,499&#10;S 128,500 128,500 &#10;" fill="none" marker-end="url(#id99)" marker-start="url(#id99)" stroke="#000" stroke-width="3" /><path d="M 79,188 79,188 &#10;S 70,212 68,242&#10;S 68,272 68,302&#10;S 68,332 68,362&#10;S 68,392 68,422&#10;S 68,452 71,482&#10;S 89,496 119,499&#10;S 149,499 179,493&#10;S 186,488 186,488 &#10;" fill="none" marker-end="url(#id99)" marker-start="url(#id99)" stroke="#000" stroke-width="3" /><path d="M 79,188 79,188 &#10;S 70,212 68,242&#10;S 68,272 68,302&#10;S 68,332 68,362&#10;S 68,392 68,422&#10;S 68,452 71,482&#10;S 89,496 119,499&#10;S 149,499 179,493&#10;S 185,489 185,489 &#10;" fill="none" marker-end="url(#id99)" marker-start="url(#id99)" stroke="#000" stroke-width="3" /><path d="M 79,188 79,188 &#10;S 70,212 68,242&#10;S 68,272 68,302&#10;S 68,332 68,362&#10;S 68,392 68,422&#10;S 68,452 71,482&#10;S 89,496 119,499&#10;S 149,499 179,493&#10;S 184,490 184,490 &#10;" fill="none" marker-end="url(#id99)" marker-start="url(#id99)" stroke="#000" stroke-width="3" /><path d="M 79,188 79,188 &#10;S 70,212 68,242&#10;S 68,272 68,302&#10;S 68,332 68,362&#10;S 68,392 68,422&#10;S 68,452 71,482&#10;S 89,496 119,499&#10;S 149,499 179,493&#10;S 183,491 183,491 &#10;" fill="none" marker-end="url(#id99)" marker-start="url(#id99)" stroke="#000" stroke-width="3" /><path d="M 79,188 79,188 &#10;S 70,212 68,242&#10;S 68,272 68,302&#10;S 68,332 68,362&#10;S 68,392 68,422&#10;S 68,452 71,482&#10;S 89,496 119,499&#10;S 149,499 179,493&#10;S 182,492 182,492 &#10;" fill="none" marker-end="url(#id99)" marker-start="url(#id99)" stroke="#000" stroke-width="3" /><path d="M 79,188 79,188 &#10;S 70,212 68,242&#10;S 68,272 68,302&#10;S 68,332 68,362&#10;S 68,392 68,422&#10;S 68,452 71,482&#10;S 89,496 119,499&#10;S 149,499 179,493&#10;S 180,493 180,493 &#10;" fill="none" marker-end="url(#id99)" marker-start="url(#id99)" stroke="#000" stroke-width="3" /><path d="M 79,188 79,188 &#10;S 70,212 68,242&#10;S 68,272 68,302&#10;S 68,332 68,362&#10;S 68,392 68,422&#10;S 68,452 71,482&#10;S 89,496 119,499&#10;S 149,499 177,494&#10;" fill="none" marker-end="url(#id99)" marker-start="url(#id99)" stroke="#000" stroke-width="3" /><path d="M 79,188 79,188 &#10;S 70,212 68,242&#10;S 68,272 68,302&#10;S 68,332 68,362&#10;S 68,392 68,422&#10;S 68,452 71,482&#10;S 89,496 119,499&#10;S 149,499 174,495&#10;" fill="none" marker-end="url(#id99)" marker-start="url(#id99)" stroke="#000" stroke-width="3" /><path d="M 79,188 79,188 &#10;S 70,212 68,242&#10;S 68,272 68,302&#10;S 68,332 68,362&#10;S 68,392 68,422&#10;S 68,452 71,482&#10;S 89,496 119,499&#10;S 149,499 170,496&#10;" fill="none" marker-end="url(#id99)" marker-start="url(#id99)" stroke="#000" stroke-width="3" /><path d="M 79,188 79,188 &#10;S 70,212 68,242&#10;S 68,272 68,302&#10;S 68,332 68,362&#10;S 68,392 68,422&#10;S 68,452 71,482&#10;S 89,496 119,499&#10;S 149,499 166,497&#10;" fill="none" marker-end="url(#id99)" marker-start="url(#id99)" stroke="#000" stroke-width="3" /><path d="M 79,188 79,188 &#10;S 70,212 68,242&#10;S 68,272 68,302&#10;S 68,332 68,362&#10;S 68,392 68,422&#10;S 68,452 71,482&#10;S 89,496 119,499&#10;S 149,499 152,499&#10;" fill="none" marker-end="url(#id99)" marker-start="url(#id99)" stroke="#000" stroke-width="3" /><path d="M 79,188 79,188 &#10;S 70,212 68,242&#10;S 68,272 68,302&#10;S 68,332 68,362&#10;S 68,392 68,422&#10;S 68,452 71,482&#10;S 89,496 119,499&#10;S 149,499 160,498&#10;" fill="none" marker-end="url(#id99)" marker-start="url(#id99)" stroke="#000" stroke-width="3" /><path d="M 79,188 79,188 &#10;S 70,212 68,242&#10;S 68,272 68,302&#10;S 68,332 68,362&#10;S 68,392 68,422&#10;S 68,452 71,482&#10;S 89,496 119,499&#10;S 135,500 135,500 &#10;" fill="none" marker-end="url(#id99)" marker-start="url(#id99)" stroke="#000" stroke-width="3" /><path d="M 79,188 79,188 &#10;S 70,212 68,242&#10;S 68,272 68,302&#10;S 68,332 68,362&#10;S 68,392 68,422&#10;S 68,452 71,482&#10;S 89,496 119,499&#10;S 139,500 139,500 &#10;" fill="none" marker-end="url(#id99)" marker-start="url(#id99)" stroke="#000" stroke-width="3" /><path d="M 79,188 79,188 &#10;S 70,212 68,242&#10;S 68,272 68,302&#10;S 68,332 68,362&#10;S 68,392 68,422&#10;S 68,452 71,482&#10;S 89,496 119,499&#10;S 149,499 149,499 &#10;" fill="none" marker-end="url(#id99)" marker-start="url(#id99)" stroke="#000" stroke-width="3" /></svg>